<svg preserveAspectRatio="none" width="100%" height="100%" overflow="visible" style="display: block;" viewBox="0 0 19.2976 19.2977" fill="none" xmlns="http://www.w3.org/2000/svg">
<g id="Group">
<path id="Vector" d="M18.381 7.35132H19.2976V11.9465H18.381V7.35132Z" fill="var(--fill-0, white)"/>
<path id="Vector_2" d="M17.4584 11.9466H18.3811V13.7859H17.4584V11.9466Z" fill="var(--fill-0, white)"/>
<path id="Vector_3" d="M17.4584 5.51203H18.3811V7.35132H17.4584V5.51203Z" fill="var(--fill-0, white)"/>
<path id="Vector_4" d="M16.5414 13.7855H17.458V15.6188H16.5414V13.7855Z" fill="var(--fill-0, white)"/>
<path id="Vector_5" d="M16.5414 3.67243H17.458V5.51172H16.5414V3.67243Z" fill="var(--fill-0, white)"/>
<path id="Vector_6" d="M15.6188 15.6192H16.5426V16.543H15.6188V15.6192Z" fill="var(--fill-0, white)"/>
<path id="Vector_7" d="M15.6188 2.75607H16.5426V3.67383H15.6188V2.75607Z" fill="var(--fill-0, white)"/>
<path id="Vector_8" d="M13.7858 16.5418H15.619V17.4585H13.7858V16.5418Z" fill="var(--fill-0, white)"/>
<path id="Vector_9" d="M13.7858 1.8394H15.619V2.75603H13.7858V1.8394Z" fill="var(--fill-0, white)"/>
<path id="Vector_10" d="M11.9462 17.4585H13.7855V18.3812H11.9462V17.4585Z" fill="var(--fill-0, white)"/>
<path id="Vector_11" d="M11.9462 0.91678H13.7855V1.83944H11.9462V0.91678Z" fill="var(--fill-0, white)"/>
<path id="Vector_12" d="M7.35123 18.3811H11.9464V19.2977H7.35123V18.3811Z" fill="var(--fill-0, white)"/>
<path id="Vector_13" d="M11.0298 11.9466H8.26786V12.8632H7.35123V15.6191H8.26786V16.5418H11.0298V15.6191H11.9464V12.8632H11.0298V11.9466Z" fill="var(--fill-0, white)"/>
<path id="Vector_14" d="M11.0298 2.75607H8.26786V3.6727H7.35123V9.19058H8.26786V11.0299H11.0298V9.19058H11.9464V3.6727H11.0298V2.75607Z" fill="var(--fill-0, white)"/>
<path id="Vector_15" d="M7.35123 0.000107765H11.9464V0.916739H7.35123V0.000107765Z" fill="var(--fill-0, white)"/>
<path id="Vector_16" d="M5.51194 17.4585H7.35123V18.3812H5.51194V17.4585Z" fill="var(--fill-0, white)"/>
<path id="Vector_17" d="M5.51194 0.91678H7.35123V1.83944H5.51194V0.91678Z" fill="var(--fill-0, white)"/>
<path id="Vector_18" d="M3.67265 16.5418H5.51194V17.4585H3.67265V16.5418Z" fill="var(--fill-0, white)"/>
<path id="Vector_19" d="M3.67265 1.8394H5.51194V2.75603H3.67265V1.8394Z" fill="var(--fill-0, white)"/>
<path id="Vector_20" d="M2.75598 15.6192H3.67374V16.543H2.75598V15.6192Z" fill="var(--fill-0, white)"/>
<path id="Vector_21" d="M2.75598 2.75607H3.67374V3.67383H2.75598V2.75607Z" fill="var(--fill-0, white)"/>
<path id="Vector_22" d="M1.8393 13.7855H2.75594V15.6188H1.8393V13.7855Z" fill="var(--fill-0, white)"/>
<path id="Vector_23" d="M1.8393 3.67243H2.75594V5.51172H1.8393V3.67243Z" fill="var(--fill-0, white)"/>
<path id="Vector_24" d="M0.916688 11.9466H1.83935V13.7859H0.916688V11.9466Z" fill="var(--fill-0, white)"/>
<path id="Vector_25" d="M0.916688 5.51203H1.83935V7.35132H0.916688V5.51203Z" fill="var(--fill-0, white)"/>
<path id="Vector_26" d="M1.56214e-05 7.35132H0.916647V11.9465H1.56214e-05V7.35132Z" fill="var(--fill-0, white)"/>
</g>
</svg>
