<svg preserveAspectRatio="none" width="100%" height="100%" overflow="visible" style="display: block;" viewBox="0 0 94.2374 23.8893" fill="none" xmlns="http://www.w3.org/2000/svg">
<g id="Group">
<path id="Vector" fill-rule="evenodd" clip-rule="evenodd" d="M12.4295 23.6873H5.17284C1.78928 23.6873 9.76563e-05 21.1776 9.76563e-05 17.3571V6.54046C9.76563e-05 2.72193 0.815328 0 5.70671 0H7.57628C11.0217 0 12.5305 2.72605 12.5305 6.57653V8.70481H6.90327V5.26246C6.90327 4.96048 6.64974 4.68839 6.34467 4.68839H6.27665C5.9757 4.68839 5.69846 4.96048 5.69846 5.26246V18.229C5.69846 18.599 6.01384 18.8309 6.31375 18.8309H12.4326L12.4295 23.6873Z" fill="var(--fill-0, white)"/>
<path id="Vector_2" fill-rule="evenodd" clip-rule="evenodd" d="M21.0311 0.0412072H18.3546C14.969 0.0412072 13.3302 1.68199 13.3302 5.06559V18.8638C13.3302 22.2474 14.969 23.8892 18.3546 23.8892H21.0311C24.4147 23.8892 26.0586 22.2485 26.0586 18.8638V5.06559C26.0586 1.68199 24.4147 0.0412072 21.0311 0.0412072ZM20.3427 18.5165C20.3427 18.8721 20.0572 19.1607 19.7016 19.1607C19.3172 19.1607 19.0245 18.8731 19.0245 18.5165V5.37272C19.0245 5.01612 19.3162 4.72857 19.6707 4.72857C20.0572 4.72857 20.3427 5.01612 20.3427 5.37272V18.5165Z" fill="var(--fill-0, white)"/>
<path id="Vector_3" fill-rule="evenodd" clip-rule="evenodd" d="M53.0207 0.241075H45.5867V23.6861H51.28V14.5454H53.0207C56.4063 14.5454 58.045 12.9077 58.045 9.52408V5.26443C58.045 1.88083 56.4063 0.240045 53.0207 0.240045M52.4425 9.67249C52.4425 10.027 52.1766 10.3156 51.8489 10.3156L51.2604 10.3135V4.76044H51.8489C52.1766 4.76044 52.4425 5.04799 52.4425 5.40253V9.67249Z" fill="var(--fill-0, white)"/>
<path id="Vector_4" fill-rule="evenodd" clip-rule="evenodd" d="M44.6316 0.241781V23.6868H39.0033V13.0898L37.715 23.6868H33.9429L32.5587 13.0898V23.6868H26.95L26.9871 0.241781H34.3892L35.5898 9.37946C35.6197 9.60414 35.9444 9.60414 35.9743 9.37946L37.1646 0.241781H44.6336H44.6316Z" fill="var(--fill-0, white)"/>
<path id="Vector_5" fill-rule="evenodd" clip-rule="evenodd" d="M58.8237 0.241781H64.521V18.8315H68.862V23.6879H58.8237V0.241781Z" fill="var(--fill-0, white)"/>
<path id="Vector_6" fill-rule="evenodd" clip-rule="evenodd" d="M69.7571 0.241781H79.815V5.10435H75.4585V9.39595H79.0946V14.2585H75.4585V18.8521H79.8841V23.6899H69.7571V0.241781Z" fill="var(--fill-0, white)"/>
<path id="Vector_7" d="M91.0662 11.5656L94.2374 23.6736H88.1701L87.0673 17.6536L85.7924 23.6736H80.5187L83.69 12.3674L80.5878 0.258427H86.6541L87.6538 6.17947L88.8947 0.258427H94.1674L91.0662 11.5656Z" fill="var(--fill-0, white)"/>
</g>
</svg>
