<svg width="327" height="96" viewBox="0 0 327 96" fill="none" xmlns="http://www.w3.org/2000/svg">
<path fill-rule="evenodd" clip-rule="evenodd" d="M43.6459 42.0116C44.056 42.0116 44.3905 41.6912 44.3905 41.2747V26.0549C44.3905 25.6383 43.9992 25.3115 43.608 25.3115C43.2168 25.3115 42.8823 25.6319 42.8823 26.0549V41.2747C42.8823 41.6912 43.2357 42.0116 43.6459 42.0116Z" fill="white"/>
<path fill-rule="evenodd" clip-rule="evenodd" d="M28.1723 54.264H27.4971V60.698H28.1723C28.5256 60.698 28.8475 60.3776 28.8475 59.9546V55.001C28.8475 54.6037 28.5509 54.264 28.1723 54.264Z" fill="white"/>
<path fill-rule="evenodd" clip-rule="evenodd" d="M0 0.17762V95.0722H93.4236V0.17762H0ZM52.4194 20.0819H60.9446L62.5537 32.3795L64.1439 20.0819H72.6817V47.2404H66.2515V34.9621L64.7749 47.2404H60.4398L58.8496 34.9621V47.2404H52.4194V20.0819ZM36.3535 25.6636C36.3535 21.7545 38.2213 19.8576 42.0895 19.8576H45.1563C49.0056 19.8576 50.8734 21.7545 50.8734 25.6636V41.6459C50.8734 45.5742 49.0056 47.4711 45.1563 47.4711H42.0895C38.2213 47.4711 36.3535 45.5742 36.3535 41.6459V25.6636ZM34.7822 59.7687C34.7822 63.6778 33.2678 65.5939 29.4185 65.5939H27.4371V76.1868H20.9501V49.0283H29.4185C33.2867 49.0283 34.7822 50.9252 34.7822 54.8343V59.7687ZM34.7822 29.8995H28.8569V25.9135C28.8569 25.5546 28.5603 25.247 28.2195 25.247C27.8788 25.247 27.4749 25.5482 27.4749 25.9135V40.9282C27.4749 41.364 27.8472 41.6139 28.188 41.6139H34.7822V47.2532H26.8944C23.0451 47.2532 21.0069 44.3503 21.0069 39.9285V27.4002C21.0069 22.9785 21.9219 19.8256 27.5128 19.8256H29.4185C33.3624 19.8256 34.7822 22.9785 34.7822 27.4387V29.9059V29.8995ZM45.6043 76.1484H36.0001V48.9899H42.4871V70.5091H45.6106V76.1484H45.6043ZM56.9628 76.1484H46.8348V48.9899H56.8871V54.5331H52.7728V59.506H56.6978V65.1453H52.7728V70.5155H56.9565V76.1548L56.9628 76.1484ZM66.3462 76.11L65.1473 69.1441L63.8032 76.11H58.105L61.5252 63.0177L58.2186 48.9899H64.6677L65.8098 55.8404L67.1918 48.9899H72.8332L69.4698 62.0885L72.89 76.1164H66.3462V76.11Z" fill="white"/>
<path d="M118.189 0H128.109C128.184 0 128.221 0 128.221 0C128.221 0 128.221 0.0401917 128.221 0.120575V10.7307C128.221 10.8111 128.221 10.8513 128.221 10.8513C128.221 10.8513 128.184 10.8513 128.109 10.8513H118.189C118.114 10.8513 118.076 10.8513 118.076 10.8513C118.076 10.8513 118.076 10.8111 118.076 10.7307V0.120575C118.076 0.0401917 118.076 0 118.076 0C118.076 0 118.114 0 118.189 0ZM129.461 0H139.381C139.456 0 139.494 0 139.494 0C139.494 0 139.494 0.0401917 139.494 0.120575V10.7307C139.494 10.8111 139.494 10.8513 139.494 10.8513C139.494 10.8513 139.456 10.8513 139.381 10.8513H129.461C129.386 10.8513 129.349 10.8513 129.349 10.8513C129.349 10.8513 129.349 10.8111 129.349 10.7307V0.120575C129.349 0.0401917 129.349 0 129.349 0C129.349 0 129.386 0 129.461 0ZM140.734 0H150.654C150.729 0 150.766 0 150.766 0C150.766 0 150.766 0.0401917 150.766 0.120575V10.7307C150.766 10.8111 150.766 10.8513 150.766 10.8513C150.766 10.8513 150.729 10.8513 150.654 10.8513H140.734C140.659 10.8513 140.621 10.8513 140.621 10.8513C140.621 10.8513 140.621 10.8111 140.621 10.7307V0.120575C140.621 0.0401917 140.621 0 140.621 0C140.621 0 140.659 0 140.734 0ZM106.916 12.0569H116.836C116.911 12.0569 116.949 12.0569 116.949 12.0569C116.949 12.0569 116.949 12.0971 116.949 12.1775V22.7876C116.949 22.868 116.949 22.9082 116.949 22.9082C116.949 22.9082 116.911 22.9082 116.836 22.9082H106.916C106.841 22.9082 106.804 22.9082 106.804 22.9082C106.804 22.9082 106.804 22.868 106.804 22.7876V12.1775C106.804 12.0971 106.804 12.0569 106.804 12.0569C106.804 12.0569 106.841 12.0569 106.916 12.0569ZM152.006 12.0569H161.926C162.001 12.0569 162.039 12.0569 162.039 12.0569C162.039 12.0569 162.039 12.0971 162.039 12.1775V22.7876C162.039 22.868 162.039 22.9082 162.039 22.9082C162.039 22.9082 162.001 22.9082 161.926 22.9082H152.006C151.931 22.9082 151.894 22.9082 151.894 22.9082C151.894 22.9082 151.894 22.868 151.894 22.7876V12.1775C151.894 12.0971 151.894 12.0569 151.894 12.0569C151.894 12.0569 151.931 12.0569 152.006 12.0569ZM106.916 24.1139H116.836C116.911 24.1139 116.949 24.1139 116.949 24.1139C116.949 24.1139 116.949 24.1541 116.949 24.2345V34.8446C116.949 34.9249 116.949 34.9651 116.949 34.9651C116.949 34.9651 116.911 34.9651 116.836 34.9651H106.916C106.841 34.9651 106.804 34.9651 106.804 34.9651C106.804 34.9651 106.804 34.9249 106.804 34.8446V24.2345C106.804 24.1541 106.804 24.1139 106.804 24.1139C106.804 24.1139 106.841 24.1139 106.916 24.1139ZM152.006 24.1139H161.926C162.001 24.1139 162.039 24.1139 162.039 24.1139C162.039 24.1139 162.039 24.1541 162.039 24.2345V34.8446C162.039 34.9249 162.039 34.9651 162.039 34.9651C162.039 34.9651 162.001 34.9651 161.926 34.9651H152.006C151.931 34.9651 151.894 34.9651 151.894 34.9651C151.894 34.9651 151.894 34.9249 151.894 34.8446V24.2345C151.894 24.1541 151.894 24.1139 151.894 24.1139C151.894 24.1139 151.931 24.1139 152.006 24.1139ZM106.916 36.1708H116.836C116.911 36.1708 116.949 36.1708 116.949 36.1708C116.949 36.1708 116.949 36.211 116.949 36.2914V46.9015C116.949 46.9819 116.949 47.0221 116.949 47.0221C116.949 47.0221 116.911 47.0221 116.836 47.0221H106.916C106.841 47.0221 106.804 47.0221 106.804 47.0221C106.804 47.0221 106.804 46.9819 106.804 46.9015V36.2914C106.804 36.211 106.804 36.1708 106.804 36.1708C106.804 36.1708 106.841 36.1708 106.916 36.1708ZM152.006 36.1708H161.926C162.001 36.1708 162.039 36.1708 162.039 36.1708C162.039 36.1708 162.039 36.211 162.039 36.2914V46.9015C162.039 46.9819 162.039 47.0221 162.039 47.0221C162.039 47.0221 162.001 47.0221 161.926 47.0221H152.006C151.931 47.0221 151.894 47.0221 151.894 47.0221C151.894 47.0221 151.894 46.9819 151.894 46.9015V36.2914C151.894 36.211 151.894 36.1708 151.894 36.1708C151.894 36.1708 151.931 36.1708 152.006 36.1708ZM106.916 48.2278H116.836C116.911 48.2278 116.949 48.2278 116.949 48.2278C116.949 48.2278 116.949 48.268 116.949 48.3483V58.9584C116.949 59.0388 116.949 59.079 116.949 59.079C116.949 59.079 116.911 59.079 116.836 59.079H106.916C106.841 59.079 106.804 59.079 106.804 59.079C106.804 59.079 106.804 59.0388 106.804 58.9584V48.3483C106.804 48.268 106.804 48.2278 106.804 48.2278C106.804 48.2278 106.841 48.2278 106.916 48.2278ZM152.006 48.2278H161.926C162.001 48.2278 162.039 48.2278 162.039 48.2278C162.039 48.2278 162.039 48.268 162.039 48.3483V58.9584C162.039 59.0388 162.039 59.079 162.039 59.079C162.039 59.079 162.001 59.079 161.926 59.079H152.006C151.931 59.079 151.894 59.079 151.894 59.079C151.894 59.079 151.894 59.0388 151.894 58.9584V48.3483C151.894 48.268 151.894 48.2278 151.894 48.2278C151.894 48.2278 151.931 48.2278 152.006 48.2278ZM106.916 60.2847H116.836C116.911 60.2847 116.949 60.2847 116.949 60.2847C116.949 60.2847 116.949 60.3249 116.949 60.4053V71.0154C116.949 71.0958 116.949 71.136 116.949 71.136C116.949 71.136 116.911 71.136 116.836 71.136H106.916C106.841 71.136 106.804 71.136 106.804 71.136C106.804 71.136 106.804 71.0958 106.804 71.0154V60.4053C106.804 60.3249 106.804 60.2847 106.804 60.2847C106.804 60.2847 106.841 60.2847 106.916 60.2847ZM129.461 60.2847H139.381C139.456 60.2847 139.494 60.2847 139.494 60.2847C139.494 60.2847 139.494 60.3249 139.494 60.4053V71.0154C139.494 71.0958 139.494 71.136 139.494 71.136C139.494 71.136 139.456 71.136 139.381 71.136H129.461C129.386 71.136 129.349 71.136 129.349 71.136C129.349 71.136 129.349 71.0958 129.349 71.0154V60.4053C129.349 60.3249 129.349 60.2847 129.349 60.2847C129.349 60.2847 129.386 60.2847 129.461 60.2847ZM152.006 60.2847H161.926C162.001 60.2847 162.039 60.2847 162.039 60.2847C162.039 60.2847 162.039 60.3249 162.039 60.4053V71.0154C162.039 71.0958 162.039 71.136 162.039 71.136C162.039 71.136 162.001 71.136 161.926 71.136H152.006C151.931 71.136 151.894 71.136 151.894 71.136C151.894 71.136 151.894 71.0958 151.894 71.0154V60.4053C151.894 60.3249 151.894 60.2847 151.894 60.2847C151.894 60.2847 151.931 60.2847 152.006 60.2847ZM118.189 72.3417H128.109C128.184 72.3417 128.221 72.3417 128.221 72.3417C128.221 72.3417 128.221 72.3818 128.221 72.4622V83.0723C128.221 83.1527 128.221 83.1929 128.221 83.1929C128.221 83.1929 128.184 83.1929 128.109 83.1929H118.189C118.114 83.1929 118.076 83.1929 118.076 83.1929C118.076 83.1929 118.076 83.1527 118.076 83.0723V72.4622C118.076 72.3818 118.076 72.3417 118.076 72.3417C118.076 72.3417 118.114 72.3417 118.189 72.3417ZM129.461 72.3417H139.381C139.456 72.3417 139.494 72.3417 139.494 72.3417C139.494 72.3417 139.494 72.3818 139.494 72.4622V83.0723C139.494 83.1527 139.494 83.1929 139.494 83.1929C139.494 83.1929 139.456 83.1929 139.381 83.1929H129.461C129.386 83.1929 129.349 83.1929 129.349 83.1929C129.349 83.1929 129.349 83.1527 129.349 83.0723V72.4622C129.349 72.3818 129.349 72.3417 129.349 72.3417C129.349 72.3417 129.386 72.3417 129.461 72.3417ZM140.734 72.3417H150.654C150.729 72.3417 150.766 72.3417 150.766 72.3417C150.766 72.3417 150.766 72.3818 150.766 72.4622V83.0723C150.766 83.1527 150.766 83.1929 150.766 83.1929C150.766 83.1929 150.729 83.1929 150.654 83.1929H140.734C140.659 83.1929 140.621 83.1929 140.621 83.1929C140.621 83.1929 140.621 83.1527 140.621 83.0723V72.4622C140.621 72.3818 140.621 72.3417 140.621 72.3417C140.621 72.3417 140.659 72.3417 140.734 72.3417ZM152.006 84.3986H161.926C162.001 84.3986 162.039 84.3986 162.039 84.3986C162.039 84.3986 162.039 84.4388 162.039 84.5192V95.1293C162.039 95.2097 162.039 95.2498 162.039 95.2498C162.039 95.2498 162.001 95.2498 161.926 95.2498H152.006C151.931 95.2498 151.894 95.2498 151.894 95.2498C151.894 95.2498 151.894 95.2097 151.894 95.1293V84.5192C151.894 84.4388 151.894 84.3986 151.894 84.3986C151.894 84.3986 151.931 84.3986 152.006 84.3986Z" fill="white"/>
<path d="M169.954 0H179.874C179.949 0 179.987 0 179.987 0C179.987 0 179.987 0.0401917 179.987 0.120575V10.7307C179.987 10.8111 179.987 10.8513 179.987 10.8513C179.987 10.8513 179.949 10.8513 179.874 10.8513H169.954C169.879 10.8513 169.842 10.8513 169.842 10.8513C169.842 10.8513 169.842 10.8111 169.842 10.7307V0.120575C169.842 0.0401917 169.842 0 169.842 0C169.842 0 169.879 0 169.954 0ZM215.044 0H224.964C225.039 0 225.077 0 225.077 0C225.077 0 225.077 0.0401917 225.077 0.120575V10.7307C225.077 10.8111 225.077 10.8513 225.077 10.8513C225.077 10.8513 225.039 10.8513 224.964 10.8513H215.044C214.969 10.8513 214.931 10.8513 214.931 10.8513C214.931 10.8513 214.931 10.8111 214.931 10.7307V0.120575C214.931 0.0401917 214.931 0 214.931 0C214.931 0 214.969 0 215.044 0ZM169.954 12.0569H179.874C179.949 12.0569 179.987 12.0569 179.987 12.0569C179.987 12.0569 179.987 12.0971 179.987 12.1775V22.7876C179.987 22.868 179.987 22.9082 179.987 22.9082C179.987 22.9082 179.949 22.9082 179.874 22.9082H169.954C169.879 22.9082 169.842 22.9082 169.842 22.9082C169.842 22.9082 169.842 22.868 169.842 22.7876V12.1775C169.842 12.0971 169.842 12.0569 169.842 12.0569C169.842 12.0569 169.879 12.0569 169.954 12.0569ZM215.044 12.0569H224.964C225.039 12.0569 225.077 12.0569 225.077 12.0569C225.077 12.0569 225.077 12.0971 225.077 12.1775V22.7876C225.077 22.868 225.077 22.9082 225.077 22.9082C225.077 22.9082 225.039 22.9082 224.964 22.9082H215.044C214.969 22.9082 214.931 22.9082 214.931 22.9082C214.931 22.9082 214.931 22.868 214.931 22.7876V12.1775C214.931 12.0971 214.931 12.0569 214.931 12.0569C214.931 12.0569 214.969 12.0569 215.044 12.0569ZM169.954 24.1139H179.874C179.949 24.1139 179.987 24.1139 179.987 24.1139C179.987 24.1139 179.987 24.1541 179.987 24.2345V34.8446C179.987 34.9249 179.987 34.9651 179.987 34.9651C179.987 34.9651 179.949 34.9651 179.874 34.9651H169.954C169.879 34.9651 169.842 34.9651 169.842 34.9651C169.842 34.9651 169.842 34.9249 169.842 34.8446V24.2345C169.842 24.1541 169.842 24.1139 169.842 24.1139C169.842 24.1139 169.879 24.1139 169.954 24.1139ZM215.044 24.1139H224.964C225.039 24.1139 225.077 24.1139 225.077 24.1139C225.077 24.1139 225.077 24.1541 225.077 24.2345V34.8446C225.077 34.9249 225.077 34.9651 225.077 34.9651C225.077 34.9651 225.039 34.9651 224.964 34.9651H215.044C214.969 34.9651 214.931 34.9651 214.931 34.9651C214.931 34.9651 214.931 34.9249 214.931 34.8446V24.2345C214.931 24.1541 214.931 24.1139 214.931 24.1139C214.931 24.1139 214.969 24.1139 215.044 24.1139ZM169.954 36.1708H179.874C179.949 36.1708 179.987 36.1708 179.987 36.1708C179.987 36.1708 179.987 36.211 179.987 36.2914V46.9015C179.987 46.9819 179.987 47.0221 179.987 47.0221C179.987 47.0221 179.949 47.0221 179.874 47.0221H169.954C169.879 47.0221 169.842 47.0221 169.842 47.0221C169.842 47.0221 169.842 46.9819 169.842 46.9015V36.2914C169.842 36.211 169.842 36.1708 169.842 36.1708C169.842 36.1708 169.879 36.1708 169.954 36.1708ZM215.044 36.1708H224.964C225.039 36.1708 225.077 36.1708 225.077 36.1708C225.077 36.1708 225.077 36.211 225.077 36.2914V46.9015C225.077 46.9819 225.077 47.0221 225.077 47.0221C225.077 47.0221 225.039 47.0221 224.964 47.0221H215.044C214.969 47.0221 214.931 47.0221 214.931 47.0221C214.931 47.0221 214.931 46.9819 214.931 46.9015V36.2914C214.931 36.211 214.931 36.1708 214.931 36.1708C214.931 36.1708 214.969 36.1708 215.044 36.1708ZM169.954 48.2278H179.874C179.949 48.2278 179.987 48.2278 179.987 48.2278C179.987 48.2278 179.987 48.268 179.987 48.3483V58.9584C179.987 59.0388 179.987 59.079 179.987 59.079C179.987 59.079 179.949 59.079 179.874 59.079H169.954C169.879 59.079 169.842 59.079 169.842 59.079C169.842 59.079 169.842 59.0388 169.842 58.9584V48.3483C169.842 48.268 169.842 48.2278 169.842 48.2278C169.842 48.2278 169.879 48.2278 169.954 48.2278ZM215.044 48.2278H224.964C225.039 48.2278 225.077 48.2278 225.077 48.2278C225.077 48.2278 225.077 48.268 225.077 48.3483V58.9584C225.077 59.0388 225.077 59.079 225.077 59.079C225.077 59.079 225.039 59.079 224.964 59.079H215.044C214.969 59.079 214.931 59.079 214.931 59.079C214.931 59.079 214.931 59.0388 214.931 58.9584V48.3483C214.931 48.268 214.931 48.2278 214.931 48.2278C214.931 48.2278 214.969 48.2278 215.044 48.2278ZM169.954 60.2847H179.874C179.949 60.2847 179.987 60.2847 179.987 60.2847C179.987 60.2847 179.987 60.3249 179.987 60.4053V71.0154C179.987 71.0958 179.987 71.136 179.987 71.136C179.987 71.136 179.949 71.136 179.874 71.136H169.954C169.879 71.136 169.842 71.136 169.842 71.136C169.842 71.136 169.842 71.0958 169.842 71.0154V60.4053C169.842 60.3249 169.842 60.2847 169.842 60.2847C169.842 60.2847 169.879 60.2847 169.954 60.2847ZM215.044 60.2847H224.964C225.039 60.2847 225.077 60.2847 225.077 60.2847C225.077 60.2847 225.077 60.3249 225.077 60.4053V71.0154C225.077 71.0958 225.077 71.136 225.077 71.136C225.077 71.136 225.039 71.136 224.964 71.136H215.044C214.969 71.136 214.931 71.136 214.931 71.136C214.931 71.136 214.931 71.0958 214.931 71.0154V60.4053C214.931 60.3249 214.931 60.2847 214.931 60.2847C214.931 60.2847 214.969 60.2847 215.044 60.2847ZM181.227 72.3417H191.147C191.222 72.3417 191.259 72.3417 191.259 72.3417C191.259 72.3417 191.259 72.3818 191.259 72.4622V83.0723C191.259 83.1527 191.259 83.1929 191.259 83.1929C191.259 83.1929 191.222 83.1929 191.147 83.1929H181.227C181.152 83.1929 181.114 83.1929 181.114 83.1929C181.114 83.1929 181.114 83.1527 181.114 83.0723V72.4622C181.114 72.3818 181.114 72.3417 181.114 72.3417C181.114 72.3417 181.152 72.3417 181.227 72.3417ZM192.499 72.3417H202.419C202.494 72.3417 202.532 72.3417 202.532 72.3417C202.532 72.3417 202.532 72.3818 202.532 72.4622V83.0723C202.532 83.1527 202.532 83.1929 202.532 83.1929C202.532 83.1929 202.494 83.1929 202.419 83.1929H192.499C192.424 83.1929 192.386 83.1929 192.386 83.1929C192.386 83.1929 192.386 83.1527 192.386 83.0723V72.4622C192.386 72.3818 192.386 72.3417 192.386 72.3417C192.386 72.3417 192.424 72.3417 192.499 72.3417ZM203.772 72.3417H213.691C213.767 72.3417 213.804 72.3417 213.804 72.3417C213.804 72.3417 213.804 72.3818 213.804 72.4622V83.0723C213.804 83.1527 213.804 83.1929 213.804 83.1929C213.804 83.1929 213.767 83.1929 213.691 83.1929H203.772C203.697 83.1929 203.659 83.1929 203.659 83.1929C203.659 83.1929 203.659 83.1527 203.659 83.0723V72.4622C203.659 72.3818 203.659 72.3417 203.659 72.3417C203.659 72.3417 203.697 72.3417 203.772 72.3417Z" fill="white"/>
<path d="M232.428 0.602872H242.348C242.423 0.602872 242.461 0.602872 242.461 0.602872C242.461 0.602872 242.461 0.643064 242.461 0.723447V11.3336C242.461 11.4139 242.461 11.4541 242.461 11.4541C242.461 11.4541 242.423 11.4541 242.348 11.4541H232.428C232.353 11.4541 232.315 11.4541 232.315 11.4541C232.315 11.4541 232.315 11.4139 232.315 11.3336V0.723447C232.315 0.643064 232.315 0.602872 232.315 0.602872C232.315 0.602872 232.353 0.602872 232.428 0.602872ZM243.701 0.602872H253.62C253.696 0.602872 253.733 0.602872 253.733 0.602872C253.733 0.602872 253.733 0.643064 253.733 0.723447V11.3336C253.733 11.4139 253.733 11.4541 253.733 11.4541C253.733 11.4541 253.696 11.4541 253.62 11.4541H243.701C243.626 11.4541 243.588 11.4541 243.588 11.4541C243.588 11.4541 243.588 11.4139 243.588 11.3336V0.723447C243.588 0.643064 243.588 0.602872 243.588 0.602872C243.588 0.602872 243.626 0.602872 243.701 0.602872ZM254.973 0.602872H264.893C264.968 0.602872 265.006 0.602872 265.006 0.602872C265.006 0.602872 265.006 0.643064 265.006 0.723447V11.3336C265.006 11.4139 265.006 11.4541 265.006 11.4541C265.006 11.4541 264.968 11.4541 264.893 11.4541H254.973C254.898 11.4541 254.86 11.4541 254.86 11.4541C254.86 11.4541 254.86 11.4139 254.86 11.3336V0.723447C254.86 0.643064 254.86 0.602872 254.86 0.602872C254.86 0.602872 254.898 0.602872 254.973 0.602872ZM243.701 12.6598H253.62C253.696 12.6598 253.733 12.6598 253.733 12.6598C253.733 12.6598 253.733 12.7 253.733 12.7804V23.3905C253.733 23.4709 253.733 23.5111 253.733 23.5111C253.733 23.5111 253.696 23.5111 253.62 23.5111H243.701C243.626 23.5111 243.588 23.5111 243.588 23.5111C243.588 23.5111 243.588 23.4709 243.588 23.3905V12.7804C243.588 12.7 243.588 12.6598 243.588 12.6598C243.588 12.6598 243.626 12.6598 243.701 12.6598ZM243.701 24.7168H253.62C253.696 24.7168 253.733 24.7168 253.733 24.7168C253.733 24.7168 253.733 24.7569 253.733 24.8373V35.4474C253.733 35.5278 253.733 35.568 253.733 35.568C253.733 35.568 253.696 35.568 253.62 35.568H243.701C243.626 35.568 243.588 35.568 243.588 35.568C243.588 35.568 243.588 35.5278 243.588 35.4474V24.8373C243.588 24.7569 243.588 24.7168 243.588 24.7168C243.588 24.7168 243.626 24.7168 243.701 24.7168ZM243.701 36.7737H253.62C253.696 36.7737 253.733 36.7737 253.733 36.7737C253.733 36.7737 253.733 36.8139 253.733 36.8943V47.5044C253.733 47.5848 253.733 47.6249 253.733 47.6249C253.733 47.6249 253.696 47.6249 253.62 47.6249H243.701C243.626 47.6249 243.588 47.6249 243.588 47.6249C243.588 47.6249 243.588 47.5848 243.588 47.5044V36.8943C243.588 36.8139 243.588 36.7737 243.588 36.7737C243.588 36.7737 243.626 36.7737 243.701 36.7737ZM243.701 48.8306H253.62C253.696 48.8306 253.733 48.8306 253.733 48.8306C253.733 48.8306 253.733 48.8708 253.733 48.9512V59.5613C253.733 59.6417 253.733 59.6819 253.733 59.6819C253.733 59.6819 253.696 59.6819 253.62 59.6819H243.701C243.626 59.6819 243.588 59.6819 243.588 59.6819C243.588 59.6819 243.588 59.6417 243.588 59.5613V48.9512C243.588 48.8708 243.588 48.8306 243.588 48.8306C243.588 48.8306 243.626 48.8306 243.701 48.8306ZM243.701 60.8876H253.62C253.696 60.8876 253.733 60.8876 253.733 60.8876C253.733 60.8876 253.733 60.9278 253.733 61.0082V71.6183C253.733 71.6986 253.733 71.7388 253.733 71.7388C253.733 71.7388 253.696 71.7388 253.62 71.7388H243.701C243.626 71.7388 243.588 71.7388 243.588 71.7388C243.588 71.7388 243.588 71.6986 243.588 71.6183V61.0082C243.588 60.9278 243.588 60.8876 243.588 60.8876C243.588 60.8876 243.626 60.8876 243.701 60.8876ZM232.428 72.9445H242.348C242.423 72.9445 242.461 72.9445 242.461 72.9445C242.461 72.9445 242.461 72.9847 242.461 73.0651V83.6752C242.461 83.7556 242.461 83.7958 242.461 83.7958C242.461 83.7958 242.423 83.7958 242.348 83.7958H232.428C232.353 83.7958 232.315 83.7958 232.315 83.7958C232.315 83.7958 232.315 83.7556 232.315 83.6752V73.0651C232.315 72.9847 232.315 72.9445 232.315 72.9445C232.315 72.9445 232.353 72.9445 232.428 72.9445ZM243.701 72.9445H253.62C253.696 72.9445 253.733 72.9445 253.733 72.9445C253.733 72.9445 253.733 72.9847 253.733 73.0651V83.6752C253.733 83.7556 253.733 83.7958 253.733 83.7958C253.733 83.7958 253.696 83.7958 253.62 83.7958H243.701C243.626 83.7958 243.588 83.7958 243.588 83.7958C243.588 83.7958 243.588 83.7556 243.588 83.6752V73.0651C243.588 72.9847 243.588 72.9445 243.588 72.9445C243.588 72.9445 243.626 72.9445 243.701 72.9445ZM254.973 72.9445H264.893C264.968 72.9445 265.006 72.9445 265.006 72.9445C265.006 72.9445 265.006 72.9847 265.006 73.0651V83.6752C265.006 83.7556 265.006 83.7958 265.006 83.7958C265.006 83.7958 264.968 83.7958 264.893 83.7958H254.973C254.898 83.7958 254.86 83.7958 254.86 83.7958C254.86 83.7958 254.86 83.7556 254.86 83.6752V73.0651C254.86 72.9847 254.86 72.9445 254.86 72.9445C254.86 72.9445 254.898 72.9445 254.973 72.9445Z" fill="white"/>
<path d="M271.129 0.602872H281.049C281.124 0.602872 281.162 0.602872 281.162 0.602872C281.162 0.602872 281.162 0.643064 281.162 0.723447V11.3336C281.162 11.4139 281.162 11.4541 281.162 11.4541C281.162 11.4541 281.124 11.4541 281.049 11.4541H271.129C271.054 11.4541 271.017 11.4541 271.017 11.4541C271.017 11.4541 271.017 11.4139 271.017 11.3336V0.723447C271.017 0.643064 271.017 0.602872 271.017 0.602872C271.017 0.602872 271.054 0.602872 271.129 0.602872ZM282.402 0.602872H292.322C292.397 0.602872 292.434 0.602872 292.434 0.602872C292.434 0.602872 292.434 0.643064 292.434 0.723447V11.3336C292.434 11.4139 292.434 11.4541 292.434 11.4541C292.434 11.4541 292.397 11.4541 292.322 11.4541H282.402C282.327 11.4541 282.289 11.4541 282.289 11.4541C282.289 11.4541 282.289 11.4139 282.289 11.3336V0.723447C282.289 0.643064 282.289 0.602872 282.289 0.602872C282.289 0.602872 282.327 0.602872 282.402 0.602872ZM293.674 0.602872H303.594C303.669 0.602872 303.707 0.602872 303.707 0.602872C303.707 0.602872 303.707 0.643064 303.707 0.723447V11.3336C303.707 11.4139 303.707 11.4541 303.707 11.4541C303.707 11.4541 303.669 11.4541 303.594 11.4541H293.674C293.599 11.4541 293.562 11.4541 293.562 11.4541C293.562 11.4541 293.562 11.4139 293.562 11.3336V0.723447C293.562 0.643064 293.562 0.602872 293.562 0.602872C293.562 0.602872 293.599 0.602872 293.674 0.602872ZM304.947 0.602872H314.867C314.942 0.602872 314.979 0.602872 314.979 0.602872C314.979 0.602872 314.979 0.643064 314.979 0.723447V11.3336C314.979 11.4139 314.979 11.4541 314.979 11.4541C314.979 11.4541 314.942 11.4541 314.867 11.4541H304.947C304.872 11.4541 304.834 11.4541 304.834 11.4541C304.834 11.4541 304.834 11.4139 304.834 11.3336V0.723447C304.834 0.643064 304.834 0.602872 304.834 0.602872C304.834 0.602872 304.872 0.602872 304.947 0.602872ZM316.219 0.602872H326.139C326.214 0.602872 326.252 0.602872 326.252 0.602872C326.252 0.602872 326.252 0.643064 326.252 0.723447V11.3336C326.252 11.4139 326.252 11.4541 326.252 11.4541C326.252 11.4541 326.214 11.4541 326.139 11.4541H316.219C316.144 11.4541 316.107 11.4541 316.107 11.4541C316.107 11.4541 316.107 11.4139 316.107 11.3336V0.723447C316.107 0.643064 316.107 0.602872 316.107 0.602872C316.107 0.602872 316.144 0.602872 316.219 0.602872ZM316.219 12.6598H326.139C326.214 12.6598 326.252 12.6598 326.252 12.6598C326.252 12.6598 326.252 12.7 326.252 12.7804V23.3905C326.252 23.4709 326.252 23.5111 326.252 23.5111C326.252 23.5111 326.214 23.5111 326.139 23.5111H316.219C316.144 23.5111 316.107 23.5111 316.107 23.5111C316.107 23.5111 316.107 23.4709 316.107 23.3905V12.7804C316.107 12.7 316.107 12.6598 316.107 12.6598C316.107 12.6598 316.144 12.6598 316.219 12.6598ZM304.947 24.7168H314.867C314.942 24.7168 314.979 24.7168 314.979 24.7168C314.979 24.7168 314.979 24.7569 314.979 24.8373V35.4474C314.979 35.5278 314.979 35.568 314.979 35.568C314.979 35.568 314.942 35.568 314.867 35.568H304.947C304.872 35.568 304.834 35.568 304.834 35.568C304.834 35.568 304.834 35.5278 304.834 35.4474V24.8373C304.834 24.7569 304.834 24.7168 304.834 24.7168C304.834 24.7168 304.872 24.7168 304.947 24.7168ZM293.674 36.7737H303.594C303.669 36.7737 303.707 36.7737 303.707 36.7737C303.707 36.7737 303.707 36.8139 303.707 36.8943V47.5044C303.707 47.5848 303.707 47.6249 303.707 47.6249C303.707 47.6249 303.669 47.6249 303.594 47.6249H293.674C293.599 47.6249 293.562 47.6249 293.562 47.6249C293.562 47.6249 293.562 47.5848 293.562 47.5044V36.8943C293.562 36.8139 293.562 36.7737 293.562 36.7737C293.562 36.7737 293.599 36.7737 293.674 36.7737ZM282.402 48.8306H292.322C292.397 48.8306 292.434 48.8306 292.434 48.8306C292.434 48.8306 292.434 48.8708 292.434 48.9512V59.5613C292.434 59.6417 292.434 59.6819 292.434 59.6819C292.434 59.6819 292.397 59.6819 292.322 59.6819H282.402C282.327 59.6819 282.289 59.6819 282.289 59.6819C282.289 59.6819 282.289 59.6417 282.289 59.5613V48.9512C282.289 48.8708 282.289 48.8306 282.289 48.8306C282.289 48.8306 282.327 48.8306 282.402 48.8306ZM271.129 60.8876H281.049C281.124 60.8876 281.162 60.8876 281.162 60.8876C281.162 60.8876 281.162 60.9278 281.162 61.0082V71.6183C281.162 71.6986 281.162 71.7388 281.162 71.7388C281.162 71.7388 281.124 71.7388 281.049 71.7388H271.129C271.054 71.7388 271.017 71.7388 271.017 71.7388C271.017 71.7388 271.017 71.6986 271.017 71.6183V61.0082C271.017 60.9278 271.017 60.8876 271.017 60.8876C271.017 60.8876 271.054 60.8876 271.129 60.8876ZM271.129 72.9445H281.049C281.124 72.9445 281.162 72.9445 281.162 72.9445C281.162 72.9445 281.162 72.9847 281.162 73.0651V83.6752C281.162 83.7556 281.162 83.7958 281.162 83.7958C281.162 83.7958 281.124 83.7958 281.049 83.7958H271.129C271.054 83.7958 271.017 83.7958 271.017 83.7958C271.017 83.7958 271.017 83.7556 271.017 83.6752V73.0651C271.017 72.9847 271.017 72.9445 271.017 72.9445C271.017 72.9445 271.054 72.9445 271.129 72.9445ZM282.402 72.9445H292.322C292.397 72.9445 292.434 72.9445 292.434 72.9445C292.434 72.9445 292.434 72.9847 292.434 73.0651V83.6752C292.434 83.7556 292.434 83.7958 292.434 83.7958C292.434 83.7958 292.397 83.7958 292.322 83.7958H282.402C282.327 83.7958 282.289 83.7958 282.289 83.7958C282.289 83.7958 282.289 83.7556 282.289 83.6752V73.0651C282.289 72.9847 282.289 72.9445 282.289 72.9445C282.289 72.9445 282.327 72.9445 282.402 72.9445ZM293.674 72.9445H303.594C303.669 72.9445 303.707 72.9445 303.707 72.9445C303.707 72.9445 303.707 72.9847 303.707 73.0651V83.6752C303.707 83.7556 303.707 83.7958 303.707 83.7958C303.707 83.7958 303.669 83.7958 303.594 83.7958H293.674C293.599 83.7958 293.562 83.7958 293.562 83.7958C293.562 83.7958 293.562 83.7556 293.562 83.6752V73.0651C293.562 72.9847 293.562 72.9445 293.562 72.9445C293.562 72.9445 293.599 72.9445 293.674 72.9445ZM304.947 72.9445H314.867C314.942 72.9445 314.979 72.9445 314.979 72.9445C314.979 72.9445 314.979 72.9847 314.979 73.0651V83.6752C314.979 83.7556 314.979 83.7958 314.979 83.7958C314.979 83.7958 314.942 83.7958 314.867 83.7958H304.947C304.872 83.7958 304.834 83.7958 304.834 83.7958C304.834 83.7958 304.834 83.7556 304.834 83.6752V73.0651C304.834 72.9847 304.834 72.9445 304.834 72.9445C304.834 72.9445 304.872 72.9445 304.947 72.9445ZM316.219 72.9445H326.139C326.214 72.9445 326.252 72.9445 326.252 72.9445C326.252 72.9445 326.252 72.9847 326.252 73.0651V83.6752C326.252 83.7556 326.252 83.7958 326.252 83.7958C326.252 83.7958 326.214 83.7958 326.139 83.7958H316.219C316.144 83.7958 316.107 83.7958 316.107 83.7958C316.107 83.7958 316.107 83.7556 316.107 83.6752V73.0651C316.107 72.9847 316.107 72.9445 316.107 72.9445C316.107 72.9445 316.144 72.9445 316.219 72.9445Z" fill="white"/>
</svg>
