<svg preserveAspectRatio="none" width="100%" height="100%" overflow="visible" style="display: block;" viewBox="0 0 28.5656 18.5656" fill="none" xmlns="http://www.w3.org/2000/svg">
<g id="Group">
<path id="Vector" d="M27.1406 3.71313H28.5656V6.18313H27.1406V3.71313Z" fill="var(--fill-0, #FFD60A)"/>
<path id="Vector_2" d="M24.2813 2.47H27.1406V3.71313H24.2813V2.47Z" fill="var(--fill-0, #FFD60A)"/>
<path id="Vector_3" d="M24.2813 11.1394H25.7156V7.42625H27.1406V6.18313H24.2813V3.71313H22.8563V7.42625H24.2813V11.1394Z" fill="var(--fill-0, #FFD60A)"/>
<path id="Vector_4" d="M22.8563 12.3744H21.4219V13.6175H22.8563V14.8525H5.70938V13.6175H7.14375V12.3744H5.70938V11.1394H4.28438V17.3306H5.70938V18.5656H22.8563V17.3306H24.2813V11.1394H22.8563V12.3744Z" fill="var(--fill-0, #FFD60A)"/>
<path id="Vector_5" d="M21.4219 7.42625H22.8563V8.66125H21.4219V7.42625Z" fill="var(--fill-0, #FFD60A)"/>
<path id="Vector_6" d="M19.9969 8.66125H21.4219V9.90437H19.9969V8.66125Z" fill="var(--fill-0, #FFD60A)"/>
<path id="Vector_7" d="M18.5719 9.90438H19.9969V11.1394H18.5719V9.90438Z" fill="var(--fill-0, #FFD60A)"/>
<path id="Vector_8" d="M17.1375 12.3744H19.9969V13.6175H17.1375V12.3744Z" fill="var(--fill-0, #FFD60A)"/>
<path id="Vector_9" d="M17.1375 7.42625H18.5719V9.90437H17.1375V7.42625Z" fill="var(--fill-0, #FFD60A)"/>
<path id="Vector_10" d="M15.7125 4.94812H17.1375V7.42625H15.7125V4.94812Z" fill="var(--fill-0, #FFD60A)"/>
<path id="Vector_11" d="M15.7125 1.235H17.1375V3.71313H15.7125V1.235Z" fill="var(--fill-0, #FFD60A)"/>
<path id="Vector_12" d="M12.8531 3.71313H15.7125V4.94813H12.8531V3.71313Z" fill="var(--fill-0, #FFD60A)"/>
<path id="Vector_13" d="M12.8531 0H15.7125V1.235H12.8531V0Z" fill="var(--fill-0, #FFD60A)"/>
<path id="Vector_14" d="M12.8531 11.1394H15.7125V13.6175H12.8531V11.1394Z" fill="var(--fill-0, #FFD60A)"/>
<path id="Vector_15" d="M11.4281 4.94812H12.8531V7.42625H11.4281V4.94812Z" fill="var(--fill-0, #FFD60A)"/>
<path id="Vector_16" d="M11.4281 1.235H12.8531V3.71313H11.4281V1.235Z" fill="var(--fill-0, #FFD60A)"/>
<path id="Vector_17" d="M9.99375 7.42625H11.4281V9.90437H9.99375V7.42625Z" fill="var(--fill-0, #FFD60A)"/>
<path id="Vector_18" d="M8.56875 12.3744H11.4281V13.6175H8.56875V12.3744Z" fill="var(--fill-0, #FFD60A)"/>
<path id="Vector_19" d="M8.56875 9.90438H9.99375V11.1394H8.56875V9.90438Z" fill="var(--fill-0, #FFD60A)"/>
<path id="Vector_20" d="M7.14375 8.66125H8.56875V9.90437H7.14375V8.66125Z" fill="var(--fill-0, #FFD60A)"/>
<path id="Vector_21" d="M5.70938 7.42625H7.14375V8.66125H5.70938V7.42625Z" fill="var(--fill-0, #FFD60A)"/>
<path id="Vector_22" d="M1.425 6.18313V7.42625H2.85938V11.1394H4.28438V7.42625H5.70937V3.71313H4.28438V6.18313H1.425Z" fill="var(--fill-0, #FFD60A)"/>
<path id="Vector_23" d="M1.425 2.47H4.28438V3.71313H1.425V2.47Z" fill="var(--fill-0, #FFD60A)"/>
<path id="Vector_24" d="M2.23517e-08 3.71313H1.425V6.18313H2.23517e-08V3.71313Z" fill="var(--fill-0, #FFD60A)"/>
</g>
</svg>
