<svg preserveAspectRatio="xMidYMid meet" width="100%" height="100%" overflow="visible" style="display: block;" viewBox="0 0 45.4766 53.0525" fill="none" xmlns="http://www.w3.org/2000/svg">
<g id="Group">
<path id="Vector" d="M30.3072 32.8424H25.2672V35.3624H22.7307V32.8424H17.6741V35.3624H15.1541V40.419H17.6741V42.939H20.2107V45.4756H22.7307V47.9956H25.2672V45.4756H27.7872V42.939H30.3072V40.419H32.8438V35.3624H30.3072V32.8424Z" fill="#FF9500"/>
<path id="Vector_2" d="M42.9399 17.6734H45.4765V37.8832H42.9399V17.6734Z" fill="#FF9500"/>
<path id="Vector_3" d="M40.4208 37.8822H42.9408V42.9388H40.4208V37.8822Z" fill="#FF9500"/>
<path id="Vector_4" d="M40.4208 15.1528H42.9408V17.6728H40.4208V15.1528Z" fill="#FF9500"/>
<path id="Vector_5" d="M37.882 42.9401H40.4186V45.4767H37.882V42.9401Z" fill="#FF9500"/>
<path id="Vector_6" d="M37.882 12.6331H40.4186V15.1531H37.882V12.6331Z" fill="#FF9500"/>
<path id="Vector_7" d="M35.3637 45.4755H37.8837V47.9955H35.3637V45.4755Z" fill="#FF9500"/>
<path id="Vector_8" d="M35.3637 10.0963H37.8837V12.6329H35.3637V10.0963Z" fill="#FF9500"/>
<path id="Vector_9" d="M32.8437 47.9961H35.3637V50.5161H32.8437V47.9961Z" fill="#FF9500"/>
<path id="Vector_10" d="M32.8437 7.5771H35.3637V10.0971H32.8437V7.5771Z" fill="#FF9500"/>
<path id="Vector_11" d="M30.3049 5.0403H32.8415V7.57688H30.3049V5.0403Z" fill="#FF9500"/>
<path id="Vector_12" d="M12.6317 50.5158H32.8415V53.0524H12.6317V50.5158Z" fill="#FF9500"/>
<path id="Vector_13" d="M25.2667 2.51922H30.3067V5.03922H25.2667V2.51922Z" fill="#FF9500"/>
<path id="Vector_14" d="M20.2087 15.1528H22.7287V25.2494H20.2087V15.1528Z" fill="#FF9500"/>
<path id="Vector_15" d="M17.6733 7.5771H20.2099V15.1537H17.6733V7.5771Z" fill="#FF9500"/>
<path id="Vector_16" d="M15.1541 5.0403H17.6741V7.57688H15.1541V5.0403Z" fill="#FF9500"/>
<path id="Vector_17" d="M25.2659 2.52V0H10.0962V2.52H12.6328V5.04H15.1528V2.52H25.2659Z" fill="#FF9500"/>
<path id="Vector_18" d="M12.6317 25.2505H20.2083V27.7871H12.6317V25.2505Z" fill="#FF9500"/>
<path id="Vector_19" d="M10.0962 47.9961H12.6328V50.5161H10.0962V47.9961Z" fill="#FF9500"/>
<path id="Vector_20" d="M10.0962 22.7299H12.6328V25.2499H10.0962V22.7299Z" fill="#FF9500"/>
<path id="Vector_21" d="M5.05799 45.4755H10.098V47.9955H5.05799V45.4755Z" fill="#FF9500"/>
<path id="Vector_22" d="M10.098 17.6734H7.57799V20.21H5.05799V22.73H10.098V17.6734Z" fill="#FF9500"/>
<path id="Vector_23" d="M2.51922 42.9401H5.0558V45.4767H2.51922V42.9401Z" fill="#FF9500"/>
<path id="Vector_24" d="M2.51922 22.7299H5.0558V30.3065H2.51922V22.7299Z" fill="#FF9500"/>
<path id="Vector_25" d="M0 30.307H2.52V42.9402H0V30.307Z" fill="#FF9500"/>
</g>
</svg>
