<svg preserveAspectRatio="none" width="100%" height="100%" overflow="visible" style="display: block;" viewBox="0 0 1302.03 868.999" fill="none" xmlns="http://www.w3.org/2000/svg">
<g id="Group">
<path id="Vector" d="M1239.78 331.033H1302.03V537.964H1239.78V331.033Z" fill="var(--fill-0, #FFFFFF)"/>
<path id="Vector_2" d="M1177.87 537.967H1239.72V620.793H1177.87V537.967Z" fill="var(--fill-0, #FFFFFF)"/>
<path id="Vector_3" d="M1177.87 248.212H1239.72V331.038H1177.87V248.212Z" fill="var(--fill-0, #FFFFFF)"/>
<path id="Vector_4" d="M1116.05 620.788H1177.89V703.343H1116.05V620.788Z" fill="var(--fill-0, #FFFFFF)"/>
<path id="Vector_5" d="M1116.05 165.656H1177.89V248.211H1116.05V165.656Z" fill="var(--fill-0, #FFFFFF)"/>
<path id="Vector_6" d="M1053.82 703.344H1116.07V744.893H1053.82V703.344Z" fill="var(--fill-0, #FFFFFF)"/>
<path id="Vector_7" d="M1053.82 124.099H1116.07V165.648H1053.82V124.099Z" fill="var(--fill-0, #FFFFFF)"/>
<path id="Vector_8" d="M929.693 744.901H1053.79V786.178H929.693V744.901Z" fill="var(--fill-0, #FFFFFF)"/>
<path id="Vector_9" d="M929.693 82.8213H1053.79V124.099H929.693V82.8213Z" fill="var(--fill-0, #FFFFFF)"/>
<path id="Vector_10" d="M806.042 786.179H929.732V827.728H806.042V786.179Z" fill="var(--fill-0, #FFFFFF)"/>
<path id="Vector_11" d="M806.042 41.278H929.732V82.8271H806.042V41.278Z" fill="var(--fill-0, #FFFFFF)"/>
<path id="Vector_12" d="M495.958 827.722H805.997V868.999H495.958V827.722Z" fill="var(--fill-0, #FFFFFF)"/>
<path id="Vector_13" d="M495.958 0H805.997V41.2775H495.958V0Z" fill="var(--fill-0, #FFFFFF)"/>
<path id="Vector_14" d="M371.909 786.179H496.006V827.728H371.909V786.179Z" fill="var(--fill-0, #FFFFFF)"/>
<path id="Vector_15" d="M371.909 41.278H496.006V82.8271H371.909V41.278Z" fill="var(--fill-0, #FFFFFF)"/>
<path id="Vector_16" d="M247.781 744.901H371.877V786.178H247.781V744.901Z" fill="var(--fill-0, #FFFFFF)"/>
<path id="Vector_17" d="M247.781 82.8213H371.877V124.099H247.781V82.8213Z" fill="var(--fill-0, #FFFFFF)"/>
<path id="Vector_18" d="M185.955 703.344H247.8V744.893H185.955V703.344Z" fill="var(--fill-0, #FFFFFF)"/>
<path id="Vector_19" d="M185.955 124.099H247.8V165.648H185.955V124.099Z" fill="var(--fill-0, #FFFFFF)"/>
<path id="Vector_20" d="M124.129 620.788H185.974V703.343H124.129V620.788Z" fill="var(--fill-0, #FFFFFF)"/>
<path id="Vector_21" d="M124.129 165.656H185.974V248.211H124.129V165.656Z" fill="var(--fill-0, #FFFFFF)"/>
<path id="Vector_22" d="M61.8259 537.967H124.078V620.793H61.8259V537.967Z" fill="var(--fill-0, #FFFFFF)"/>
<path id="Vector_23" d="M61.8259 248.212H124.078V331.038H61.8259V248.212Z" fill="var(--fill-0, #FFFFFF)"/>
<path id="Vector_24" d="M0 331.033H61.845V537.964H0V331.033Z" fill="var(--fill-0, #FFFFFF)"/>
</g>
</svg>
