<svg width="1269" height="1052" viewBox="0 0 1269 1052" fill="none" xmlns="http://www.w3.org/2000/svg">
<rect x="2.88219" y="2.88219" width="1262.4" height="1046.24" fill="black"/>
<rect x="2.88219" y="2.88219" width="1262.4" height="1046.24" stroke="white" stroke-width="5.76438"/>
<path fill-rule="evenodd" clip-rule="evenodd" d="M754.537 46.3525H807.447V71.9254H784.522V94.4999H806.565V120.078H784.522V144.238H807.801V169.813H754.537V46.3525ZM658.587 121.69V169.813H628.604V46.3525H667.759C685.57 46.3525 694.211 54.9906 694.211 72.8039V95.2362C694.211 113.052 685.57 121.69 667.759 121.69H658.587ZM659.51 71.5913V101.013L662.637 101.03C664.369 101.03 665.765 99.5071 665.765 97.6223V74.996C665.765 73.1167 664.369 71.5913 662.637 71.5913H659.51ZM524.136 143.803C524.136 161.316 515.639 169.813 498.123 169.813H484.251C466.738 169.813 458.243 161.316 458.243 143.803V72.363C458.243 54.8476 466.738 46.3525 484.251 46.3525H498.123C515.639 46.3525 524.136 54.8476 524.136 72.363V143.803ZM488.706 74.8179V144.466C488.706 146.348 490.232 147.877 492.278 147.877C494.158 147.877 495.683 146.348 495.683 144.466V74.8179C495.683 72.9386 494.158 71.4104 492.111 71.4104C490.232 71.4104 488.706 72.9386 488.706 74.8179V74.8179ZM878.716 46.3525L862.844 105.963L879.07 169.813H848.027L842.389 138.067L835.858 169.813H808.872L825.099 110.197L809.224 46.3525H840.267L845.382 77.5674L851.733 46.3525H878.716ZM700.221 46.3525H730.206V144.237H750.842V169.813H700.221V46.3525ZM623.067 46.3525V169.813H593.434V114.007L586.644 169.813H566.762L559.47 114.007V169.813H529.941L529.84 46.3525H569.093L576.452 102.195L583.732 46.3525H622.966H623.067ZM454.259 169.813H416.033C398.4 169.813 389.098 156.733 389.098 136.822V80.4473C389.098 60.5448 393.321 46.3525 418.807 46.3525H428.547C446.536 46.3525 454.386 60.5637 454.386 80.6417V91.7358H425.057V73.7844C425.057 72.2111 423.732 70.7916 422.162 70.7916H421.797C420.224 70.7916 418.775 72.2111 418.775 73.7844V141.369C418.775 143.291 420.407 144.5 421.981 144.5H453.876L454.259 169.813Z" fill="white"/>
<line y1="211.841" x2="1268.16" y2="211.841" stroke="white" stroke-width="5.76438"/>
<path d="M107.359 265.855H173.685C174.187 265.855 174.438 265.855 174.438 265.855C174.438 265.855 174.438 266.107 174.438 266.609V332.935C174.438 333.437 174.438 333.688 174.438 333.688C174.438 333.688 174.187 333.688 173.685 333.688H107.359C106.857 333.688 106.605 333.688 106.605 333.688C106.605 333.688 106.605 333.437 106.605 332.935V266.609C106.605 266.107 106.605 265.855 106.605 265.855C106.605 265.855 106.857 265.855 107.359 265.855ZM182.729 265.855H249.055C249.557 265.855 249.808 265.855 249.808 265.855C249.808 265.855 249.808 266.107 249.808 266.609V332.935C249.808 333.437 249.808 333.688 249.808 333.688C249.808 333.688 249.557 333.688 249.055 333.688H182.729C182.227 333.688 181.975 333.688 181.975 333.688C181.975 333.688 181.975 333.437 181.975 332.935V266.609C181.975 266.107 181.975 265.855 181.975 265.855C181.975 265.855 182.227 265.855 182.729 265.855ZM258.099 265.855H324.425C324.927 265.855 325.178 265.855 325.178 265.855C325.178 265.855 325.178 266.107 325.178 266.609V332.935C325.178 333.437 325.178 333.688 325.178 333.688C325.178 333.688 324.927 333.688 324.425 333.688H258.099C257.597 333.688 257.345 333.688 257.345 333.688C257.345 333.688 257.345 333.437 257.345 332.935V266.609C257.345 266.107 257.345 265.855 257.345 265.855C257.345 265.855 257.597 265.855 258.099 265.855ZM333.469 265.855H399.795C400.297 265.855 400.548 265.855 400.548 265.855C400.548 265.855 400.548 266.107 400.548 266.609V332.935C400.548 333.437 400.548 333.688 400.548 333.688C400.548 333.688 400.297 333.688 399.795 333.688H333.469C332.967 333.688 332.715 333.688 332.715 333.688C332.715 333.688 332.715 333.437 332.715 332.935V266.609C332.715 266.107 332.715 265.855 332.715 265.855C332.715 265.855 332.967 265.855 333.469 265.855ZM408.839 265.855H475.165C475.667 265.855 475.918 265.855 475.918 265.855C475.918 265.855 475.918 266.107 475.918 266.609V332.935C475.918 333.437 475.918 333.688 475.918 333.688C475.918 333.688 475.667 333.688 475.165 333.688H408.839C408.337 333.688 408.085 333.688 408.085 333.688C408.085 333.688 408.085 333.437 408.085 332.935V266.609C408.085 266.107 408.085 265.855 408.085 265.855C408.085 265.855 408.337 265.855 408.839 265.855ZM107.359 341.225H173.685C174.187 341.225 174.438 341.225 174.438 341.225C174.438 341.225 174.438 341.477 174.438 341.979V408.305C174.438 408.807 174.438 409.058 174.438 409.058C174.438 409.058 174.187 409.058 173.685 409.058H107.359C106.857 409.058 106.605 409.058 106.605 409.058C106.605 409.058 106.605 408.807 106.605 408.305V341.979C106.605 341.477 106.605 341.225 106.605 341.225C106.605 341.225 106.857 341.225 107.359 341.225ZM107.359 416.595H173.685C174.187 416.595 174.438 416.595 174.438 416.595C174.438 416.595 174.438 416.847 174.438 417.349V483.675C174.438 484.177 174.438 484.428 174.438 484.428C174.438 484.428 174.187 484.428 173.685 484.428H107.359C106.857 484.428 106.605 484.428 106.605 484.428C106.605 484.428 106.605 484.177 106.605 483.675V417.349C106.605 416.847 106.605 416.595 106.605 416.595C106.605 416.595 106.857 416.595 107.359 416.595ZM258.099 416.595H324.425C324.927 416.595 325.178 416.595 325.178 416.595C325.178 416.595 325.178 416.847 325.178 417.349V483.675C325.178 484.177 325.178 484.428 325.178 484.428C325.178 484.428 324.927 484.428 324.425 484.428H258.099C257.597 484.428 257.345 484.428 257.345 484.428C257.345 484.428 257.345 484.177 257.345 483.675V417.349C257.345 416.847 257.345 416.595 257.345 416.595C257.345 416.595 257.597 416.595 258.099 416.595ZM333.469 416.595H399.795C400.297 416.595 400.548 416.595 400.548 416.595C400.548 416.595 400.548 416.847 400.548 417.349V483.675C400.548 484.177 400.548 484.428 400.548 484.428C400.548 484.428 400.297 484.428 399.795 484.428H333.469C332.967 484.428 332.715 484.428 332.715 484.428C332.715 484.428 332.715 484.177 332.715 483.675V417.349C332.715 416.847 332.715 416.595 332.715 416.595C332.715 416.595 332.967 416.595 333.469 416.595ZM107.359 491.965H173.685C174.187 491.965 174.438 491.965 174.438 491.965C174.438 491.965 174.438 492.217 174.438 492.719V559.045C174.438 559.547 174.438 559.798 174.438 559.798C174.438 559.798 174.187 559.798 173.685 559.798H107.359C106.857 559.798 106.605 559.798 106.605 559.798C106.605 559.798 106.605 559.547 106.605 559.045V492.719C106.605 492.217 106.605 491.965 106.605 491.965C106.605 491.965 106.857 491.965 107.359 491.965ZM182.729 491.965H249.055C249.557 491.965 249.808 491.965 249.808 491.965C249.808 491.965 249.808 492.217 249.808 492.719V559.045C249.808 559.547 249.808 559.798 249.808 559.798C249.808 559.798 249.557 559.798 249.055 559.798H182.729C182.227 559.798 181.975 559.798 181.975 559.798C181.975 559.798 181.975 559.547 181.975 559.045V492.719C181.975 492.217 181.975 491.965 181.975 491.965C181.975 491.965 182.227 491.965 182.729 491.965ZM408.839 491.965H475.165C475.667 491.965 475.918 491.965 475.918 491.965C475.918 491.965 475.918 492.217 475.918 492.719V559.045C475.918 559.547 475.918 559.798 475.918 559.798C475.918 559.798 475.667 559.798 475.165 559.798H408.839C408.337 559.798 408.085 559.798 408.085 559.798C408.085 559.798 408.085 559.547 408.085 559.045V492.719C408.085 492.217 408.085 491.965 408.085 491.965C408.085 491.965 408.337 491.965 408.839 491.965ZM408.839 567.335H475.165C475.667 567.335 475.918 567.335 475.918 567.335C475.918 567.335 475.918 567.587 475.918 568.089V634.415C475.918 634.917 475.918 635.168 475.918 635.168C475.918 635.168 475.667 635.168 475.165 635.168H408.839C408.337 635.168 408.085 635.168 408.085 635.168C408.085 635.168 408.085 634.917 408.085 634.415V568.089C408.085 567.587 408.085 567.335 408.085 567.335C408.085 567.335 408.337 567.335 408.839 567.335ZM107.359 642.705H173.685C174.187 642.705 174.438 642.705 174.438 642.705C174.438 642.705 174.438 642.957 174.438 643.459V709.785C174.438 710.287 174.438 710.538 174.438 710.538C174.438 710.538 174.187 710.538 173.685 710.538H107.359C106.857 710.538 106.605 710.538 106.605 710.538C106.605 710.538 106.605 710.287 106.605 709.785V643.459C106.605 642.957 106.605 642.705 106.605 642.705C106.605 642.705 106.857 642.705 107.359 642.705ZM408.839 642.705H475.165C475.667 642.705 475.918 642.705 475.918 642.705C475.918 642.705 475.918 642.957 475.918 643.459V709.785C475.918 710.287 475.918 710.538 475.918 710.538C475.918 710.538 475.667 710.538 475.165 710.538H408.839C408.337 710.538 408.085 710.538 408.085 710.538C408.085 710.538 408.085 710.287 408.085 709.785V643.459C408.085 642.957 408.085 642.705 408.085 642.705C408.085 642.705 408.337 642.705 408.839 642.705ZM182.729 718.075H249.055C249.557 718.075 249.808 718.075 249.808 718.075C249.808 718.075 249.808 718.327 249.808 718.829V785.155C249.808 785.657 249.808 785.908 249.808 785.908C249.808 785.908 249.557 785.908 249.055 785.908H182.729C182.227 785.908 181.975 785.908 181.975 785.908C181.975 785.908 181.975 785.657 181.975 785.155V718.829C181.975 718.327 181.975 718.075 181.975 718.075C181.975 718.075 182.227 718.075 182.729 718.075ZM258.099 718.075H324.425C324.927 718.075 325.178 718.075 325.178 718.075C325.178 718.075 325.178 718.327 325.178 718.829V785.155C325.178 785.657 325.178 785.908 325.178 785.908C325.178 785.908 324.927 785.908 324.425 785.908H258.099C257.597 785.908 257.345 785.908 257.345 785.908C257.345 785.908 257.345 785.657 257.345 785.155V718.829C257.345 718.327 257.345 718.075 257.345 718.075C257.345 718.075 257.597 718.075 258.099 718.075ZM333.469 718.075H399.795C400.297 718.075 400.548 718.075 400.548 718.075C400.548 718.075 400.548 718.327 400.548 718.829V785.155C400.548 785.657 400.548 785.908 400.548 785.908C400.548 785.908 400.297 785.908 399.795 785.908H333.469C332.967 785.908 332.715 785.908 332.715 785.908C332.715 785.908 332.715 785.657 332.715 785.155V718.829C332.715 718.327 332.715 718.075 332.715 718.075C332.715 718.075 332.967 718.075 333.469 718.075Z" fill="#00FF85"/>
<path d="M530.68 429.024H580.216V442.584H545.07V517.856H579.109V531.14H545.07V622.739H530.68V429.024Z" fill="white"/>
<path d="M654.428 594.789C654.428 614.437 644.466 624.4 624.818 624.4H617.069C597.421 624.4 587.458 614.437 587.458 594.789V456.697C587.458 437.326 597.421 427.363 617.069 427.363H624.818C644.466 427.363 654.428 437.326 654.428 456.697V594.789ZM640.038 456.144C640.038 445.905 634.78 440.923 624.264 440.923H617.622C607.106 440.923 602.125 445.905 602.125 456.144V595.619C602.125 605.859 607.106 610.84 617.622 610.84H624.264C634.78 610.84 640.038 605.859 640.038 595.619V456.144Z" fill="white"/>
<path d="M714.311 529.756C724.827 532.523 730.362 539.442 730.362 553.555V622.739H715.695V554.109C715.695 541.932 710.16 536.398 697.984 536.398H681.38V622.739H666.989V429.024H700.475C720.953 429.024 730.085 438.709 730.085 458.358V503.189C730.085 518.963 723.997 526.158 714.311 529.756ZM715.418 457.804C715.418 447.288 710.437 442.307 699.921 442.307H681.38V523.391H697.984C709.884 523.391 715.418 517.579 715.418 505.957V457.804Z" fill="white"/>
<path d="M785.893 260.839H853.498C854.011 260.839 854.267 260.839 854.267 260.839C854.267 260.839 854.267 261.095 854.267 261.607V329.212C854.267 329.724 854.267 329.981 854.267 329.981C854.267 329.981 854.011 329.981 853.498 329.981H785.893C785.381 329.981 785.125 329.981 785.125 329.981C785.125 329.981 785.125 329.724 785.125 329.212V261.607C785.125 261.095 785.125 260.839 785.125 260.839C785.125 260.839 785.381 260.839 785.893 260.839ZM862.717 260.839H930.322C930.835 260.839 931.091 260.839 931.091 260.839C931.091 260.839 931.091 261.095 931.091 261.607V329.212C931.091 329.724 931.091 329.981 931.091 329.981C931.091 329.981 930.835 329.981 930.322 329.981H862.717C862.205 329.981 861.949 329.981 861.949 329.981C861.949 329.981 861.949 329.724 861.949 329.212V261.607C861.949 261.095 861.949 260.839 861.949 260.839C861.949 260.839 862.205 260.839 862.717 260.839ZM939.541 260.839H1007.15C1007.66 260.839 1007.91 260.839 1007.91 260.839C1007.91 260.839 1007.91 261.095 1007.91 261.607V329.212C1007.91 329.724 1007.91 329.981 1007.91 329.981C1007.91 329.981 1007.66 329.981 1007.15 329.981H939.541C939.029 329.981 938.773 329.981 938.773 329.981C938.773 329.981 938.773 329.724 938.773 329.212V261.607C938.773 261.095 938.773 260.839 938.773 260.839C938.773 260.839 939.029 260.839 939.541 260.839ZM1016.37 260.839H1083.97C1084.48 260.839 1084.74 260.839 1084.74 260.839C1084.74 260.839 1084.74 261.095 1084.74 261.607V329.212C1084.74 329.724 1084.74 329.981 1084.74 329.981C1084.74 329.981 1084.48 329.981 1083.97 329.981H1016.37C1015.85 329.981 1015.6 329.981 1015.6 329.981C1015.6 329.981 1015.6 329.724 1015.6 329.212V261.607C1015.6 261.095 1015.6 260.839 1015.6 260.839C1015.6 260.839 1015.85 260.839 1016.37 260.839ZM1093.19 260.839H1160.79C1161.31 260.839 1161.56 260.839 1161.56 260.839C1161.56 260.839 1161.56 261.095 1161.56 261.607V329.212C1161.56 329.724 1161.56 329.981 1161.56 329.981C1161.56 329.981 1161.31 329.981 1160.79 329.981H1093.19C1092.68 329.981 1092.42 329.981 1092.42 329.981C1092.42 329.981 1092.42 329.724 1092.42 329.212V261.607C1092.42 261.095 1092.42 260.839 1092.42 260.839C1092.42 260.839 1092.68 260.839 1093.19 260.839ZM785.893 337.663H853.498C854.011 337.663 854.267 337.663 854.267 337.663C854.267 337.663 854.267 337.919 854.267 338.431V406.036C854.267 406.549 854.267 406.805 854.267 406.805C854.267 406.805 854.011 406.805 853.498 406.805H785.893C785.381 406.805 785.125 406.805 785.125 406.805C785.125 406.805 785.125 406.549 785.125 406.036V338.431C785.125 337.919 785.125 337.663 785.125 337.663C785.125 337.663 785.381 337.663 785.893 337.663ZM785.893 414.487H853.498C854.011 414.487 854.267 414.487 854.267 414.487C854.267 414.487 854.267 414.743 854.267 415.255V482.86C854.267 483.373 854.267 483.629 854.267 483.629C854.267 483.629 854.011 483.629 853.498 483.629H785.893C785.381 483.629 785.125 483.629 785.125 483.629C785.125 483.629 785.125 483.373 785.125 482.86V415.255C785.125 414.743 785.125 414.487 785.125 414.487C785.125 414.487 785.381 414.487 785.893 414.487ZM939.541 414.487H1007.15C1007.66 414.487 1007.91 414.487 1007.91 414.487C1007.91 414.487 1007.91 414.743 1007.91 415.255V482.86C1007.91 483.373 1007.91 483.629 1007.91 483.629C1007.91 483.629 1007.66 483.629 1007.15 483.629H939.541C939.029 483.629 938.773 483.629 938.773 483.629C938.773 483.629 938.773 483.373 938.773 482.86V415.255C938.773 414.743 938.773 414.487 938.773 414.487C938.773 414.487 939.029 414.487 939.541 414.487ZM1016.37 414.487H1083.97C1084.48 414.487 1084.74 414.487 1084.74 414.487C1084.74 414.487 1084.74 414.743 1084.74 415.255V482.86C1084.74 483.373 1084.74 483.629 1084.74 483.629C1084.74 483.629 1084.48 483.629 1083.97 483.629H1016.37C1015.85 483.629 1015.6 483.629 1015.6 483.629C1015.6 483.629 1015.6 483.373 1015.6 482.86V415.255C1015.6 414.743 1015.6 414.487 1015.6 414.487C1015.6 414.487 1015.85 414.487 1016.37 414.487ZM785.893 491.311H853.498C854.011 491.311 854.267 491.311 854.267 491.311C854.267 491.311 854.267 491.567 854.267 492.079V559.684C854.267 560.197 854.267 560.453 854.267 560.453C854.267 560.453 854.011 560.453 853.498 560.453H785.893C785.381 560.453 785.125 560.453 785.125 560.453C785.125 560.453 785.125 560.197 785.125 559.684V492.079C785.125 491.567 785.125 491.311 785.125 491.311C785.125 491.311 785.381 491.311 785.893 491.311ZM862.717 491.311H930.322C930.835 491.311 931.091 491.311 931.091 491.311C931.091 491.311 931.091 491.567 931.091 492.079V559.684C931.091 560.197 931.091 560.453 931.091 560.453C931.091 560.453 930.835 560.453 930.322 560.453H862.717C862.205 560.453 861.949 560.453 861.949 560.453C861.949 560.453 861.949 560.197 861.949 559.684V492.079C861.949 491.567 861.949 491.311 861.949 491.311C861.949 491.311 862.205 491.311 862.717 491.311ZM1093.19 491.311H1160.79C1161.31 491.311 1161.56 491.311 1161.56 491.311C1161.56 491.311 1161.56 491.567 1161.56 492.079V559.684C1161.56 560.197 1161.56 560.453 1161.56 560.453C1161.56 560.453 1161.31 560.453 1160.79 560.453H1093.19C1092.68 560.453 1092.42 560.453 1092.42 560.453C1092.42 560.453 1092.42 560.197 1092.42 559.684V492.079C1092.42 491.567 1092.42 491.311 1092.42 491.311C1092.42 491.311 1092.68 491.311 1093.19 491.311ZM1093.19 568.135H1160.79C1161.31 568.135 1161.56 568.135 1161.56 568.135C1161.56 568.135 1161.56 568.391 1161.56 568.903V636.509C1161.56 637.021 1161.56 637.277 1161.56 637.277C1161.56 637.277 1161.31 637.277 1160.79 637.277H1093.19C1092.68 637.277 1092.42 637.277 1092.42 637.277C1092.42 637.277 1092.42 637.021 1092.42 636.509V568.903C1092.42 568.391 1092.42 568.135 1092.42 568.135C1092.42 568.135 1092.68 568.135 1093.19 568.135ZM785.893 644.959H853.498C854.011 644.959 854.267 644.959 854.267 644.959C854.267 644.959 854.267 645.215 854.267 645.727V713.333C854.267 713.845 854.267 714.101 854.267 714.101C854.267 714.101 854.011 714.101 853.498 714.101H785.893C785.381 714.101 785.125 714.101 785.125 714.101C785.125 714.101 785.125 713.845 785.125 713.333V645.727C785.125 645.215 785.125 644.959 785.125 644.959C785.125 644.959 785.381 644.959 785.893 644.959ZM1093.19 644.959H1160.79C1161.31 644.959 1161.56 644.959 1161.56 644.959C1161.56 644.959 1161.56 645.215 1161.56 645.727V713.333C1161.56 713.845 1161.56 714.101 1161.56 714.101C1161.56 714.101 1161.31 714.101 1160.79 714.101H1093.19C1092.68 714.101 1092.42 714.101 1092.42 714.101C1092.42 714.101 1092.42 713.845 1092.42 713.333V645.727C1092.42 645.215 1092.42 644.959 1092.42 644.959C1092.42 644.959 1092.68 644.959 1093.19 644.959ZM862.717 721.783H930.322C930.835 721.783 931.091 721.783 931.091 721.783C931.091 721.783 931.091 722.039 931.091 722.551V790.157C931.091 790.669 931.091 790.925 931.091 790.925C931.091 790.925 930.835 790.925 930.322 790.925H862.717C862.205 790.925 861.949 790.925 861.949 790.925C861.949 790.925 861.949 790.669 861.949 790.157V722.551C861.949 722.039 861.949 721.783 861.949 721.783C861.949 721.783 862.205 721.783 862.717 721.783ZM939.541 721.783H1007.15C1007.66 721.783 1007.91 721.783 1007.91 721.783C1007.91 721.783 1007.91 722.039 1007.91 722.551V790.157C1007.91 790.669 1007.91 790.925 1007.91 790.925C1007.91 790.925 1007.66 790.925 1007.15 790.925H939.541C939.029 790.925 938.773 790.925 938.773 790.925C938.773 790.925 938.773 790.669 938.773 790.157V722.551C938.773 722.039 938.773 721.783 938.773 721.783C938.773 721.783 939.029 721.783 939.541 721.783ZM1016.37 721.783H1083.97C1084.48 721.783 1084.74 721.783 1084.74 721.783C1084.74 721.783 1084.74 722.039 1084.74 722.551V790.157C1084.74 790.669 1084.74 790.925 1084.74 790.925C1084.74 790.925 1084.48 790.925 1083.97 790.925H1016.37C1015.85 790.925 1015.6 790.925 1015.6 790.925C1015.6 790.925 1015.6 790.669 1015.6 790.157V722.551C1015.6 722.039 1015.6 721.783 1015.6 721.783C1015.6 721.783 1015.85 721.783 1016.37 721.783Z" fill="#00FF85"/>
<line y1="834.158" x2="1268.16" y2="834.158" stroke="white" stroke-width="5.76438"/>
<rect width="1268.16" height="213.282" transform="translate(0 837.276)" fill="white"/>
<mask id="path-8-outside-1_305_6630" maskUnits="userSpaceOnUse" x="270.75" y="855.27" width="730" height="169" fill="black">
<rect fill="white" x="270.75" y="855.27" width="730" height="169"/>
<path d="M311.374 932.206C321.043 939.512 323.836 945.528 323.836 957.561V985.064C323.836 1001.39 315.886 1009.34 299.771 1009.34H295.688C279.573 1009.34 271.623 1001.39 271.623 985.493V949.611H286.234V986.138C286.234 992.799 289.457 996.022 296.118 996.022H299.126C305.787 996.022 309.01 992.799 309.01 986.138V958.205C309.01 950.685 307.076 947.677 302.349 944.239L283.871 930.272C274.416 923.397 271.623 916.736 271.623 905.348V880.853C271.623 864.738 279.788 856.787 295.903 856.787H299.771C315.671 856.787 323.621 864.738 323.621 880.638V913.298H309.01V879.993C309.01 873.332 305.787 870.109 299.126 870.109H296.548C289.887 870.109 286.664 873.332 286.664 879.993V904.918C286.664 912.223 288.813 915.232 293.325 918.669L311.374 932.206ZM399.166 1008.27H380.472L356.837 889.447L357.051 912.009V1008.27H342.87V857.862H363.498L385.199 967.015L384.984 952.404V857.862H399.166V1008.27ZM419.138 857.862H460.178V871.613H433.964V924.901H459.319V938.437H433.964V994.518H460.608V1008.27H419.138V857.862ZM532.152 1008.27H517.541L514.533 983.56H490.897L487.889 1008.27H473.493L493.476 857.432H512.384L532.152 1008.27ZM502.5 885.15L492.401 970.238H512.814L502.5 885.15ZM602.964 1008.27H586.849L562.999 934.14V1008.27H548.173V857.862H562.999V930.917L588.139 857.862H603.824L577.825 931.991L602.964 1008.27ZM617.726 857.862H658.766V871.613H632.552V924.901H657.907V938.437H632.552V994.518H659.196V1008.27H617.726V857.862ZM717.183 936.718C725.348 939.082 729.001 944.239 729.001 954.338V1008.27H714.175V954.767C714.175 947.032 710.523 943.594 702.787 943.594H691.614V1008.27H676.788V857.862H704.506C721.481 857.862 728.786 865.597 728.786 882.142V916.306C728.786 928.124 724.704 933.71 717.183 936.718ZM713.96 881.282C713.96 874.621 710.737 871.398 704.076 871.398H691.614V930.272H703.002C710.308 930.272 713.96 926.834 713.96 919.314V881.282ZM830.164 880.853V982.915C830.164 994.088 826.296 1001.39 818.776 1004.83L833.387 1010.63L826.081 1022.45L804.594 1009.34H800.297C783.967 1009.34 776.017 1001.39 776.017 985.064V880.853C776.017 864.523 783.967 856.573 800.297 856.573H805.883C822.213 856.573 830.164 864.523 830.164 880.853ZM815.338 985.923V879.993C815.338 873.332 812.115 870.109 805.454 870.109H800.941C794.281 870.109 791.058 873.332 791.058 879.993V985.923C791.058 992.584 794.281 995.807 800.941 995.807H805.454C812.115 995.807 815.338 992.584 815.338 985.923ZM902.634 857.862V985.064C902.634 1001.39 894.684 1009.34 878.569 1009.34H873.842C857.512 1009.34 849.562 1001.39 849.562 985.064V857.862H864.388V985.923C864.388 992.584 867.611 995.807 874.487 995.807H877.925C884.586 995.807 887.809 992.584 887.809 985.923V857.862H902.634ZM937.309 857.862V1008.27H922.483V857.862H937.309ZM983.833 871.398H955.255V857.862H998.873V871.398L969.436 994.733H999.303V1008.27H954.61V994.733L983.833 871.398Z"/>
</mask>
<path d="M311.374 932.206C321.043 939.512 323.836 945.528 323.836 957.561V985.064C323.836 1001.39 315.886 1009.34 299.771 1009.34H295.688C279.573 1009.34 271.623 1001.39 271.623 985.493V949.611H286.234V986.138C286.234 992.799 289.457 996.022 296.118 996.022H299.126C305.787 996.022 309.01 992.799 309.01 986.138V958.205C309.01 950.685 307.076 947.677 302.349 944.239L283.871 930.272C274.416 923.397 271.623 916.736 271.623 905.348V880.853C271.623 864.738 279.788 856.787 295.903 856.787H299.771C315.671 856.787 323.621 864.738 323.621 880.638V913.298H309.01V879.993C309.01 873.332 305.787 870.109 299.126 870.109H296.548C289.887 870.109 286.664 873.332 286.664 879.993V904.918C286.664 912.223 288.813 915.232 293.325 918.669L311.374 932.206ZM399.166 1008.27H380.472L356.837 889.447L357.051 912.009V1008.27H342.87V857.862H363.498L385.199 967.015L384.984 952.404V857.862H399.166V1008.27ZM419.138 857.862H460.178V871.613H433.964V924.901H459.319V938.437H433.964V994.518H460.608V1008.27H419.138V857.862ZM532.152 1008.27H517.541L514.533 983.56H490.897L487.889 1008.27H473.493L493.476 857.432H512.384L532.152 1008.27ZM502.5 885.15L492.401 970.238H512.814L502.5 885.15ZM602.964 1008.27H586.849L562.999 934.14V1008.27H548.173V857.862H562.999V930.917L588.139 857.862H603.824L577.825 931.991L602.964 1008.27ZM617.726 857.862H658.766V871.613H632.552V924.901H657.907V938.437H632.552V994.518H659.196V1008.27H617.726V857.862ZM717.183 936.718C725.348 939.082 729.001 944.239 729.001 954.338V1008.27H714.175V954.767C714.175 947.032 710.523 943.594 702.787 943.594H691.614V1008.27H676.788V857.862H704.506C721.481 857.862 728.786 865.597 728.786 882.142V916.306C728.786 928.124 724.704 933.71 717.183 936.718ZM713.96 881.282C713.96 874.621 710.737 871.398 704.076 871.398H691.614V930.272H703.002C710.308 930.272 713.96 926.834 713.96 919.314V881.282ZM830.164 880.853V982.915C830.164 994.088 826.296 1001.39 818.776 1004.83L833.387 1010.63L826.081 1022.45L804.594 1009.34H800.297C783.967 1009.34 776.017 1001.39 776.017 985.064V880.853C776.017 864.523 783.967 856.573 800.297 856.573H805.883C822.213 856.573 830.164 864.523 830.164 880.853ZM815.338 985.923V879.993C815.338 873.332 812.115 870.109 805.454 870.109H800.941C794.281 870.109 791.058 873.332 791.058 879.993V985.923C791.058 992.584 794.281 995.807 800.941 995.807H805.454C812.115 995.807 815.338 992.584 815.338 985.923ZM902.634 857.862V985.064C902.634 1001.39 894.684 1009.34 878.569 1009.34H873.842C857.512 1009.34 849.562 1001.39 849.562 985.064V857.862H864.388V985.923C864.388 992.584 867.611 995.807 874.487 995.807H877.925C884.586 995.807 887.809 992.584 887.809 985.923V857.862H902.634ZM937.309 857.862V1008.27H922.483V857.862H937.309ZM983.833 871.398H955.255V857.862H998.873V871.398L969.436 994.733H999.303V1008.27H954.61V994.733L983.833 871.398Z" fill="black"/>
<path d="M311.374 932.206L311.739 931.722L311.738 931.721L311.374 932.206ZM271.623 949.611V949.004H271.016V949.611H271.623ZM286.234 949.611H286.841V949.004H286.234V949.611ZM302.349 944.239L301.983 944.723L301.992 944.73L302.349 944.239ZM283.871 930.272L284.236 929.788L284.227 929.782L283.871 930.272ZM323.621 913.298V913.905H324.228V913.298H323.621ZM309.01 913.298H308.403V913.905H309.01V913.298ZM293.325 918.669L292.957 919.152L292.961 919.155L293.325 918.669ZM311.374 932.206L311.008 932.69C315.803 936.314 318.837 939.575 320.685 943.376C322.535 947.179 323.229 951.586 323.229 957.561H323.836H324.443C324.443 951.502 323.741 946.885 321.776 942.845C319.811 938.804 316.613 935.404 311.739 931.722L311.374 932.206ZM323.836 957.561H323.229V985.064H323.836H324.443V957.561H323.836ZM323.836 985.064H323.229C323.229 993.139 321.263 999.027 317.416 1002.9C313.569 1006.77 307.737 1008.74 299.771 1008.74V1009.34V1009.95C307.92 1009.95 314.12 1007.94 318.277 1003.76C322.434 999.571 324.443 993.318 324.443 985.064H323.836ZM299.771 1009.34V1008.74H295.688V1009.34V1009.95H299.771V1009.34ZM295.688 1009.34V1008.74C287.722 1008.74 281.887 1006.77 278.04 1002.95C274.194 999.13 272.23 993.35 272.23 985.493H271.623H271.016C271.016 993.537 273.028 999.682 277.185 1003.81C281.341 1007.94 287.539 1009.95 295.688 1009.95V1009.34ZM271.623 985.493H272.23V949.611H271.623H271.016V985.493H271.623ZM271.623 949.611V950.217H286.234V949.611V949.004H271.623V949.611ZM286.234 949.611H285.627V986.138H286.234H286.841V949.611H286.234ZM286.234 986.138H285.627C285.627 989.557 286.454 992.212 288.249 994.007C290.044 995.802 292.699 996.629 296.118 996.629V996.022V995.415C292.876 995.415 290.589 994.631 289.107 993.149C287.625 991.667 286.841 989.38 286.841 986.138H286.234ZM296.118 996.022V996.629H299.126V996.022V995.415H296.118V996.022ZM299.126 996.022V996.629C302.545 996.629 305.2 995.802 306.995 994.007C308.79 992.212 309.617 989.557 309.617 986.138H309.01H308.403C308.403 989.38 307.619 991.667 306.137 993.149C304.655 994.631 302.368 995.415 299.126 995.415V996.022ZM309.01 986.138H309.617V958.205H309.01H308.403V986.138H309.01ZM309.01 958.205H309.617C309.617 954.399 309.129 951.659 307.994 949.417C306.857 947.171 305.103 945.491 302.706 943.748L302.349 944.239L301.992 944.73C304.322 946.424 305.899 947.967 306.911 949.965C307.925 951.967 308.403 954.491 308.403 958.205H309.01ZM302.349 944.239L302.715 943.755L284.236 929.788L283.871 930.272L283.505 930.756L301.983 944.723L302.349 944.239ZM283.871 930.272L284.227 929.782C279.554 926.382 276.573 923.071 274.749 919.241C272.923 915.407 272.23 910.996 272.23 905.348H271.623H271.016C271.016 911.087 271.719 915.701 273.654 919.763C275.59 923.83 278.733 927.286 283.514 930.763L283.871 930.272ZM271.623 905.348H272.23V880.853H271.623H271.016V905.348H271.623ZM271.623 880.853H272.23C272.23 872.891 274.246 867.057 278.146 863.209C282.048 859.359 287.937 857.394 295.903 857.394V856.787V856.181C287.754 856.181 281.504 858.191 277.294 862.345C273.082 866.501 271.016 872.7 271.016 880.853H271.623ZM295.903 856.787V857.394H299.771V856.787V856.181H295.903V856.787ZM299.771 856.787V857.394C307.627 857.394 313.408 859.358 317.23 863.179C321.051 867 323.014 872.781 323.014 880.638H323.621H324.228C324.228 872.594 322.217 866.45 318.088 862.321C313.959 858.192 307.814 856.181 299.771 856.181V856.787ZM323.621 880.638H323.014V913.298H323.621H324.228V880.638H323.621ZM323.621 913.298V912.691H309.01V913.298V913.905H323.621V913.298ZM309.01 913.298H309.617V879.993H309.01H308.403V913.298H309.01ZM309.01 879.993H309.617C309.617 876.574 308.79 873.919 306.995 872.124C305.2 870.33 302.545 869.503 299.126 869.503V870.109V870.716C302.368 870.716 304.655 871.5 306.137 872.982C307.619 874.464 308.403 876.751 308.403 879.993H309.01ZM299.126 870.109V869.503H296.548V870.109V870.716H299.126V870.109ZM296.548 870.109V869.503C293.129 869.503 290.474 870.33 288.679 872.124C286.884 873.919 286.057 876.574 286.057 879.993H286.664H287.271C287.271 876.751 288.055 874.464 289.537 872.982C291.019 871.5 293.306 870.716 296.548 870.716V870.109ZM286.664 879.993H286.057V904.918H286.664H287.271V879.993H286.664ZM286.664 904.918H286.057C286.057 908.628 286.602 911.314 287.765 913.526C288.927 915.737 290.674 917.413 292.957 919.152L293.325 918.669L293.692 918.187C291.463 916.489 289.88 914.941 288.839 912.962C287.8 910.984 287.271 908.513 287.271 904.918H286.664ZM293.325 918.669L292.961 919.155L311.01 932.692L311.374 932.206L311.738 931.721L293.689 918.184L293.325 918.669ZM399.166 1008.27V1008.88H399.772V1008.27H399.166ZM380.472 1008.27L379.877 1008.39L379.974 1008.88H380.472V1008.27ZM356.837 889.447L357.432 889.329L356.23 889.453L356.837 889.447ZM357.051 912.009H357.658L357.658 912.003L357.051 912.009ZM357.051 1008.27V1008.88H357.658V1008.27H357.051ZM342.87 1008.27H342.263V1008.88H342.87V1008.27ZM342.87 857.862V857.255H342.263V857.862H342.87ZM363.498 857.862L364.093 857.743L363.996 857.255H363.498V857.862ZM385.199 967.015L384.604 967.133L385.806 967.006L385.199 967.015ZM384.984 952.404H384.378L384.378 952.413L384.984 952.404ZM384.984 857.862V857.255H384.378V857.862H384.984ZM399.166 857.862H399.772V857.255H399.166V857.862ZM399.166 1008.27V1007.66H380.472V1008.27V1008.88H399.166V1008.27ZM380.472 1008.27L381.067 1008.15L357.432 889.329L356.837 889.447L356.242 889.566L379.877 1008.39L380.472 1008.27ZM356.837 889.447L356.23 889.453L356.445 912.014L357.051 912.009L357.658 912.003L357.443 889.442L356.837 889.447ZM357.051 912.009H356.445V1008.27H357.051H357.658V912.009H357.051ZM357.051 1008.27V1007.66H342.87V1008.27V1008.88H357.051V1008.27ZM342.87 1008.27H343.477V857.862H342.87H342.263V1008.27H342.87ZM342.87 857.862V858.469H363.498V857.862V857.255H342.87V857.862ZM363.498 857.862L362.902 857.98L384.604 967.133L385.199 967.015L385.794 966.897L364.093 857.743L363.498 857.862ZM385.199 967.015L385.806 967.006L385.591 952.395L384.984 952.404L384.378 952.413L384.593 967.024L385.199 967.015ZM384.984 952.404H385.591V857.862H384.984H384.378V952.404H384.984ZM384.984 857.862V858.469H399.166V857.862V857.255H384.984V857.862ZM399.166 857.862H398.559V1008.27H399.166H399.772V857.862H399.166ZM419.138 857.862V857.255H418.531V857.862H419.138ZM460.178 857.862H460.785V857.255H460.178V857.862ZM460.178 871.613V872.22H460.785V871.613H460.178ZM433.964 871.613V871.007H433.357V871.613H433.964ZM433.964 924.901H433.357V925.507H433.964V924.901ZM459.319 924.901H459.925V924.294H459.319V924.901ZM459.319 938.437V939.044H459.925V938.437H459.319ZM433.964 938.437V937.831H433.357V938.437H433.964ZM433.964 994.518H433.357V995.125H433.964V994.518ZM460.608 994.518H461.215V993.911H460.608V994.518ZM460.608 1008.27V1008.88H461.215V1008.27H460.608ZM419.138 1008.27H418.531V1008.88H419.138V1008.27ZM419.138 857.862V858.469H460.178V857.862V857.255H419.138V857.862ZM460.178 857.862H459.571V871.613H460.178H460.785V857.862H460.178ZM460.178 871.613V871.007H433.964V871.613V872.22H460.178V871.613ZM433.964 871.613H433.357V924.901H433.964H434.571V871.613H433.964ZM433.964 924.901V925.507H459.319V924.901V924.294H433.964V924.901ZM459.319 924.901H458.712V938.437H459.319H459.925V924.901H459.319ZM459.319 938.437V937.831H433.964V938.437V939.044H459.319V938.437ZM433.964 938.437H433.357V994.518H433.964H434.571V938.437H433.964ZM433.964 994.518V995.125H460.608V994.518V993.911H433.964V994.518ZM460.608 994.518H460.001V1008.27H460.608H461.215V994.518H460.608ZM460.608 1008.27V1007.66H419.138V1008.27V1008.88H460.608V1008.27ZM419.138 1008.27H419.745V857.862H419.138H418.531V1008.27H419.138ZM532.152 1008.27V1008.88H532.844L532.754 1008.19L532.152 1008.27ZM517.541 1008.27L516.939 1008.34L517.004 1008.88H517.541V1008.27ZM514.533 983.56L515.135 983.486L515.07 982.953H514.533V983.56ZM490.897 983.56V982.953H490.36L490.295 983.486L490.897 983.56ZM487.889 1008.27V1008.88H488.427L488.492 1008.34L487.889 1008.27ZM473.493 1008.27L472.892 1008.19L472.801 1008.88H473.493V1008.27ZM493.476 857.432V856.825H492.944L492.874 857.352L493.476 857.432ZM512.384 857.432L512.986 857.353L512.917 856.825H512.384V857.432ZM502.5 885.15L503.103 885.077L501.898 885.079L502.5 885.15ZM492.401 970.238L491.799 970.166L491.718 970.845H492.401V970.238ZM512.814 970.238V970.845H513.499L513.416 970.165L512.814 970.238ZM532.152 1008.27V1007.66H517.541V1008.27V1008.88H532.152V1008.27ZM517.541 1008.27L518.143 1008.2L515.135 983.486L514.533 983.56L513.931 983.633L516.939 1008.34L517.541 1008.27ZM514.533 983.56V982.953H490.897V983.56V984.166H514.533V983.56ZM490.897 983.56L490.295 983.486L487.287 1008.2L487.889 1008.27L488.492 1008.34L491.5 983.633L490.897 983.56ZM487.889 1008.27V1007.66H473.493V1008.27V1008.88H487.889V1008.27ZM473.493 1008.27L474.095 1008.35L494.077 857.512L493.476 857.432L492.874 857.352L472.892 1008.19L473.493 1008.27ZM493.476 857.432V858.039H512.384V857.432V856.825H493.476V857.432ZM512.384 857.432L511.783 857.511L531.55 1008.35L532.152 1008.27L532.754 1008.19L512.986 857.353L512.384 857.432ZM502.5 885.15L501.898 885.079L491.799 970.166L492.401 970.238L493.004 970.309L503.103 885.222L502.5 885.15ZM492.401 970.238V970.845H512.814V970.238V969.631H492.401V970.238ZM512.814 970.238L513.416 970.165L503.103 885.077L502.5 885.15L501.898 885.223L512.212 970.311L512.814 970.238ZM602.964 1008.27V1008.88H603.803L603.541 1008.08L602.964 1008.27ZM586.849 1008.27L586.272 1008.46L586.407 1008.88H586.849V1008.27ZM562.999 934.14L563.577 933.954L562.392 934.14H562.999ZM562.999 1008.27V1008.88H563.606V1008.27H562.999ZM548.173 1008.27H547.566V1008.88H548.173V1008.27ZM548.173 857.862V857.255H547.566V857.862H548.173ZM562.999 857.862H563.606V857.255H562.999V857.862ZM562.999 930.917H562.392L563.573 931.114L562.999 930.917ZM588.139 857.862V857.255H587.706L587.565 857.664L588.139 857.862ZM603.824 857.862L604.396 858.063L604.68 857.255H603.824V857.862ZM577.825 931.991L577.252 931.79L577.184 931.985L577.249 932.181L577.825 931.991ZM602.964 1008.27V1007.66H586.849V1008.27V1008.88H602.964V1008.27ZM586.849 1008.27L587.427 1008.08L563.577 933.954L562.999 934.14L562.421 934.326L586.272 1008.46L586.849 1008.27ZM562.999 934.14H562.392V1008.27H562.999H563.606V934.14H562.999ZM562.999 1008.27V1007.66H548.173V1008.27V1008.88H562.999V1008.27ZM548.173 1008.27H548.78V857.862H548.173H547.566V1008.27H548.173ZM548.173 857.862V858.469H562.999V857.862V857.255H548.173V857.862ZM562.999 857.862H562.392V930.917H562.999H563.606V857.862H562.999ZM562.999 930.917L563.573 931.114L588.712 858.059L588.139 857.862L587.565 857.664L562.425 930.72L562.999 930.917ZM588.139 857.862V858.469H603.824V857.862V857.255H588.139V857.862ZM603.824 857.862L603.251 857.661L577.252 931.79L577.825 931.991L578.397 932.192L604.396 858.063L603.824 857.862ZM577.825 931.991L577.249 932.181L602.388 1008.46L602.964 1008.27L603.541 1008.08L578.401 931.801L577.825 931.991ZM617.726 857.862V857.255H617.12V857.862H617.726ZM658.766 857.862H659.373V857.255H658.766V857.862ZM658.766 871.613V872.22H659.373V871.613H658.766ZM632.552 871.613V871.007H631.946V871.613H632.552ZM632.552 924.901H631.946V925.507H632.552V924.901ZM657.907 924.901H658.514V924.294H657.907V924.901ZM657.907 938.437V939.044H658.514V938.437H657.907ZM632.552 938.437V937.831H631.946V938.437H632.552ZM632.552 994.518H631.946V995.125H632.552V994.518ZM659.196 994.518H659.803V993.911H659.196V994.518ZM659.196 1008.27V1008.88H659.803V1008.27H659.196ZM617.726 1008.27H617.12V1008.88H617.726V1008.27ZM617.726 857.862V858.469H658.766V857.862V857.255H617.726V857.862ZM658.766 857.862H658.159V871.613H658.766H659.373V857.862H658.766ZM658.766 871.613V871.007H632.552V871.613V872.22H658.766V871.613ZM632.552 871.613H631.946V924.901H632.552H633.159V871.613H632.552ZM632.552 924.901V925.507H657.907V924.901V924.294H632.552V924.901ZM657.907 924.901H657.3V938.437H657.907H658.514V924.901H657.907ZM657.907 938.437V937.831H632.552V938.437V939.044H657.907V938.437ZM632.552 938.437H631.946V994.518H632.552H633.159V938.437H632.552ZM632.552 994.518V995.125H659.196V994.518V993.911H632.552V994.518ZM659.196 994.518H658.589V1008.27H659.196H659.803V994.518H659.196ZM659.196 1008.27V1007.66H617.726V1008.27V1008.88H659.196V1008.27ZM617.726 1008.27H618.333V857.862H617.726H617.12V1008.27H617.726ZM717.183 936.718L716.958 936.155L715.319 936.811L717.015 937.301L717.183 936.718ZM729.001 1008.27V1008.88H729.608V1008.27H729.001ZM714.175 1008.27H713.568V1008.88H714.175V1008.27ZM691.614 943.594V942.987H691.007V943.594H691.614ZM691.614 1008.27V1008.88H692.221V1008.27H691.614ZM676.788 1008.27H676.181V1008.88H676.788V1008.27ZM676.788 857.862V857.255H676.181V857.862H676.788ZM691.614 871.398V870.792H691.007V871.398H691.614ZM691.614 930.272H691.007V930.879H691.614V930.272ZM717.183 936.718L717.015 937.301C721.005 938.456 723.82 940.271 725.652 942.968C727.492 945.676 728.394 949.353 728.394 954.338H729.001H729.608C729.608 949.223 728.684 945.272 726.656 942.286C724.621 939.29 721.527 937.344 717.352 936.136L717.183 936.718ZM729.001 954.338H728.394V1008.27H729.001H729.608V954.338H729.001ZM729.001 1008.27V1007.66H714.175V1008.27V1008.88H729.001V1008.27ZM714.175 1008.27H714.782V954.767H714.175H713.568V1008.27H714.175ZM714.175 954.767H714.782C714.782 950.815 713.849 947.831 711.805 945.845C709.764 943.862 706.731 942.987 702.787 942.987V943.594V944.201C706.579 944.201 709.24 945.045 710.959 946.715C712.675 948.382 713.568 950.984 713.568 954.767H714.175ZM702.787 943.594V942.987H691.614V943.594V944.201H702.787V943.594ZM691.614 943.594H691.007V1008.27H691.614H692.221V943.594H691.614ZM691.614 1008.27V1007.66H676.788V1008.27V1008.88H691.614V1008.27ZM676.788 1008.27H677.395V857.862H676.788H676.181V1008.27H676.788ZM676.788 857.862V858.469H704.506V857.862V857.255H676.788V857.862ZM704.506 857.862V858.469C712.914 858.469 718.793 860.385 722.58 864.224C726.368 868.063 728.18 873.944 728.18 882.142H728.786H729.393C729.393 873.795 727.552 867.535 723.444 863.371C719.334 859.206 713.073 857.255 704.506 857.255V857.862ZM728.786 882.142H728.18V916.306H728.786H729.393V882.142H728.786ZM728.786 916.306H728.18C728.18 922.151 727.169 926.38 725.285 929.502C723.409 932.613 720.628 934.687 716.958 936.155L717.183 936.718L717.409 937.282C721.259 935.742 724.28 933.519 726.325 930.129C728.362 926.751 729.393 922.279 729.393 916.306H728.786ZM713.96 881.282H714.567C714.567 877.863 713.74 875.208 711.945 873.414C710.151 871.619 707.495 870.792 704.076 870.792V871.398V872.005C707.318 872.005 709.605 872.79 711.087 874.272C712.569 875.754 713.354 878.04 713.354 881.282H713.96ZM704.076 871.398V870.792H691.614V871.398V872.005H704.076V871.398ZM691.614 871.398H691.007V930.272H691.614H692.221V871.398H691.614ZM691.614 930.272V930.879H703.002V930.272V929.666H691.614V930.272ZM703.002 930.272V930.879C706.739 930.879 709.663 930 711.647 928.046C713.632 926.089 714.567 923.163 714.567 919.314H713.96H713.354C713.354 922.985 712.462 925.539 710.795 927.181C709.126 928.825 706.57 929.666 703.002 929.666V930.272ZM713.96 919.314H714.567V881.282H713.96H713.354V919.314H713.96ZM818.776 1004.83L818.523 1004.28L817.23 1004.87L818.552 1005.4L818.776 1004.83ZM833.387 1010.63L833.903 1010.95L834.283 1010.34L833.61 1010.07L833.387 1010.63ZM826.081 1022.45L825.765 1022.97L826.28 1023.28L826.597 1022.77L826.081 1022.45ZM804.594 1009.34L804.91 1008.83L804.765 1008.74H804.594V1009.34ZM830.164 880.853H829.557V982.915H830.164H830.77V880.853H830.164ZM830.164 982.915H829.557C829.557 993.943 825.755 1000.97 818.523 1004.28L818.776 1004.83L819.028 1005.38C826.837 1001.81 830.77 994.233 830.77 982.915H830.164ZM818.776 1004.83L818.552 1005.4L833.163 1011.2L833.387 1010.63L833.61 1010.07L818.999 1004.27L818.776 1004.83ZM833.387 1010.63L832.87 1010.31L825.565 1022.13L826.081 1022.45L826.597 1022.77L833.903 1010.95L833.387 1010.63ZM826.081 1022.45L826.397 1021.93L804.91 1008.83L804.594 1009.34L804.278 1009.86L825.765 1022.97L826.081 1022.45ZM804.594 1009.34V1008.74H800.297V1009.34V1009.95H804.594V1009.34ZM800.297 1009.34V1008.74C792.221 1008.74 786.335 1006.77 782.462 1002.9C778.589 999.026 776.624 993.139 776.624 985.064H776.017H775.41C775.41 993.318 777.419 999.572 781.604 1003.76C785.789 1007.94 792.042 1009.95 800.297 1009.95V1009.34ZM776.017 985.064H776.624V880.853H776.017H775.41V985.064H776.017ZM776.017 880.853H776.624C776.624 872.777 778.589 866.891 782.462 863.018C786.335 859.145 792.221 857.179 800.297 857.179V856.573V855.966C792.042 855.966 785.789 857.975 781.604 862.16C777.419 866.345 775.41 872.598 775.41 880.853H776.017ZM800.297 856.573V857.179H805.883V856.573V855.966H800.297V856.573ZM805.883 856.573V857.179C813.959 857.179 819.845 859.145 823.718 863.018C827.591 866.891 829.557 872.777 829.557 880.853H830.164H830.77C830.77 872.598 828.761 866.345 824.576 862.16C820.392 857.975 814.138 855.966 805.883 855.966V856.573ZM815.338 985.923H815.944V879.993H815.338H814.731V985.923H815.338ZM815.338 879.993H815.944C815.944 876.574 815.117 873.919 813.323 872.124C811.528 870.33 808.873 869.503 805.454 869.503V870.109V870.716C808.696 870.716 810.982 871.5 812.464 872.982C813.946 874.464 814.731 876.751 814.731 879.993H815.338ZM805.454 870.109V869.503H800.941V870.109V870.716H805.454V870.109ZM800.941 870.109V869.503C797.523 869.503 794.867 870.33 793.073 872.124C791.278 873.919 790.451 876.574 790.451 879.993H791.057H791.664C791.664 876.751 792.449 874.464 793.931 872.982C795.413 871.5 797.7 870.716 800.941 870.716V870.109ZM791.057 879.993H790.451V985.923H791.057H791.664V879.993H791.057ZM791.057 985.923H790.451C790.451 989.342 791.278 991.997 793.073 993.792C794.867 995.587 797.523 996.414 800.941 996.414V995.807V995.2C797.7 995.2 795.413 994.416 793.931 992.934C792.449 991.452 791.664 989.165 791.664 985.923H791.057ZM800.941 995.807V996.414H805.454V995.807V995.2H800.941V995.807ZM805.454 995.807V996.414C808.873 996.414 811.528 995.587 813.323 993.792C815.117 991.997 815.944 989.342 815.944 985.923H815.338H814.731C814.731 989.165 813.946 991.452 812.464 992.934C810.982 994.416 808.696 995.2 805.454 995.2V995.807ZM902.634 857.862H903.241V857.255H902.634V857.862ZM849.562 857.862V857.255H848.955V857.862H849.562ZM864.388 857.862H864.995V857.255H864.388V857.862ZM887.809 857.862V857.255H887.202V857.862H887.809ZM902.634 857.862H902.028V985.064H902.634H903.241V857.862H902.634ZM902.634 985.064H902.028C902.028 993.139 900.062 999.027 896.215 1002.9C892.368 1006.77 886.535 1008.74 878.569 1008.74V1009.34V1009.95C886.718 1009.95 892.918 1007.94 897.076 1003.76C901.232 999.571 903.241 993.318 903.241 985.064H902.634ZM878.569 1009.34V1008.74H873.842V1009.34V1009.95H878.569V1009.34ZM873.842 1009.34V1008.74C865.767 1008.74 859.88 1006.77 856.007 1002.9C852.135 999.026 850.169 993.139 850.169 985.064H849.562H848.955C848.955 993.318 850.965 999.572 855.149 1003.76C859.334 1007.94 865.588 1009.95 873.842 1009.95V1009.34ZM849.562 985.064H850.169V857.862H849.562H848.955V985.064H849.562ZM849.562 857.862V858.469H864.388V857.862V857.255H849.562V857.862ZM864.388 857.862H863.781V985.923H864.388H864.995V857.862H864.388ZM864.388 985.923H863.781C863.781 989.342 864.608 992 866.433 993.796C868.256 995.589 870.965 996.414 874.487 996.414V995.807V995.2C871.133 995.2 868.792 994.414 867.284 992.931C865.779 991.449 864.995 989.165 864.995 985.923H864.388ZM874.487 995.807V996.414H877.925V995.807V995.2H874.487V995.807ZM877.925 995.807V996.414C881.344 996.414 883.999 995.587 885.793 993.792C887.588 991.997 888.415 989.342 888.415 985.923H887.809H887.202C887.202 989.165 886.417 991.452 884.935 992.934C883.453 994.416 881.167 995.2 877.925 995.2V995.807ZM887.809 985.923H888.415V857.862H887.809H887.202V985.923H887.809ZM887.809 857.862V858.469H902.634V857.862V857.255H887.809V857.862ZM937.309 857.862H937.915V857.255H937.309V857.862ZM937.309 1008.27V1008.88H937.915V1008.27H937.309ZM922.483 1008.27H921.876V1008.88H922.483V1008.27ZM922.483 857.862V857.255H921.876V857.862H922.483ZM937.309 857.862H936.702V1008.27H937.309H937.915V857.862H937.309ZM937.309 1008.27V1007.66H922.483V1008.27V1008.88H937.309V1008.27ZM922.483 1008.27H923.09V857.862H922.483H921.876V1008.27H922.483ZM922.483 857.862V858.469H937.309V857.862V857.255H922.483V857.862ZM983.833 871.398L984.423 871.538L984.6 870.792H983.833V871.398ZM955.255 871.398H954.648V872.005H955.255V871.398ZM955.255 857.862V857.255H954.648V857.862H955.255ZM998.873 857.862H999.48V857.255H998.873V857.862ZM998.873 871.398L999.464 871.539L999.48 871.47V871.398H998.873ZM969.436 994.733L968.846 994.592L968.668 995.34H969.436V994.733ZM999.303 994.733H999.91V994.126H999.303V994.733ZM999.303 1008.27V1008.88H999.91V1008.27H999.303ZM954.61 1008.27H954.004V1008.88H954.61V1008.27ZM954.61 994.733L954.02 994.593L954.004 994.662V994.733H954.61ZM983.833 871.398V870.792H955.255V871.398V872.005H983.833V871.398ZM955.255 871.398H955.862V857.862H955.255H954.648V871.398H955.255ZM955.255 857.862V858.469H998.873V857.862V857.255H955.255V857.862ZM998.873 857.862H998.267V871.398H998.873H999.48V857.862H998.873ZM998.873 871.398L998.283 871.258L968.846 994.592L969.436 994.733L970.027 994.874L999.464 871.539L998.873 871.398ZM969.436 994.733V995.34H999.303V994.733V994.126H969.436V994.733ZM999.303 994.733H998.696V1008.27H999.303H999.91V994.733H999.303ZM999.303 1008.27V1007.66H954.61V1008.27V1008.88H999.303V1008.27ZM954.61 1008.27H955.217V994.733H954.61H954.004V1008.27H954.61ZM954.61 994.733L955.201 994.873L984.423 871.538L983.833 871.398L983.242 871.259L954.02 994.593L954.61 994.733Z" fill="black" mask="url(#path-8-outside-1_305_6630)"/>
</svg>
