<svg width="115" height="51" viewBox="0 0 115 51" fill="none" xmlns="http://www.w3.org/2000/svg">
<rect x="0.3125" y="0.456543" width="48.7883" height="48.7883" fill="white"/>
<path fill-rule="evenodd" clip-rule="evenodd" d="M23.1455 22.3423C23.3601 22.3423 23.5351 22.1747 23.5351 21.9568V13.9944C23.5351 13.7764 23.3304 13.6055 23.1257 13.6055C22.9211 13.6055 22.7461 13.7731 22.7461 13.9944V21.9568C22.7461 22.1747 22.931 22.3423 23.1455 22.3423Z" fill="black"/>
<path fill-rule="evenodd" clip-rule="evenodd" d="M15.0525 28.7524H14.6992V32.1184H15.0525C15.2373 32.1184 15.4057 31.9508 15.4057 31.7295V29.138C15.4057 28.9301 15.2505 28.7524 15.0525 28.7524Z" fill="black"/>
<path fill-rule="evenodd" clip-rule="evenodd" d="M0.3125 0.456543V50.1016H49.188V0.456543H0.3125ZM27.7363 10.8697H32.1963L33.0381 17.3033L33.87 10.8697H38.3367V25.0779H34.9727V18.6544L34.2002 25.0779H31.9322L31.1003 18.6544V25.0779H27.7363V10.8697ZM19.3312 13.7898C19.3312 11.7447 20.3084 10.7523 22.3321 10.7523H23.9365C25.9503 10.7523 26.9274 11.7447 26.9274 13.7898V22.1511C26.9274 24.2063 25.9503 25.1986 23.9365 25.1986H22.3321C20.3084 25.1986 19.3312 24.2063 19.3312 22.1511V13.7898ZM18.5092 31.6322C18.5092 33.6773 17.7169 34.6797 15.7031 34.6797H14.6665V40.2215H11.2728V26.0133H15.7031C17.7268 26.0133 18.5092 27.0057 18.5092 29.0507V31.6322ZM18.5092 16.0058H15.4093V13.9205C15.4093 13.7328 15.2541 13.5719 15.0758 13.5719C14.8976 13.5719 14.6863 13.7294 14.6863 13.9205V21.7756C14.6863 22.0036 14.8811 22.1344 15.0593 22.1344H18.5092V25.0846H14.3826C12.3688 25.0846 11.3025 23.5659 11.3025 21.2526V14.6983C11.3025 12.385 11.7812 10.7356 14.7061 10.7356H15.7031C17.7664 10.7356 18.5092 12.385 18.5092 14.7184V16.0092V16.0058ZM24.1709 40.2014H19.1463V25.9932H22.54V37.2512H24.1742V40.2014H24.1709ZM30.1132 40.2014H24.8146V25.9932H30.0736V28.8932H27.9211V31.4948H29.9745V34.445H27.9211V37.2545H30.1099V40.2048L30.1132 40.2014ZM35.0222 40.1813L34.395 36.5371L33.6918 40.1813H30.7107L32.5 33.332L30.7701 25.9932H34.1441L34.7416 29.5771L35.4646 25.9932H38.4159L36.6563 32.8459L38.4456 40.1847H35.0222V40.1813Z" fill="black"/>
<path d="M115 0V50H0V0H115ZM0.931418 49.2008H114.069V24.9995V0.798183H0.931418V49.2008Z" fill="black"/>
<path d="M62.1347 29.1463V40H56.9438V9.97H64.58C67.7975 9.97 69.3848 11.5573 69.3848 14.8177V24.3415C69.3848 27.559 67.7975 29.1463 64.58 29.1463H62.1347ZM64.1939 15.3754C64.1939 14.7319 63.8936 14.4316 63.2501 14.4316H62.1347V24.6847H63.2501C63.8936 24.6847 64.1939 24.3844 64.1939 23.7838V15.3754ZM70.8947 9.97H76.0856V35.3239H79.8608V40H70.8947V9.97ZM94.4977 40H89.3068L88.8778 35.6242H85.6603L85.2742 40H80.5123L83.9443 9.97H91.0657L94.4977 40ZM87.2476 17.2201L86.0464 31.0768H88.4917L87.2476 17.2201ZM107.187 9.97L102.811 29.5753V40H97.5771V30.0901L93.2013 9.97H98.6496L100.366 21.0382L102.253 9.97H107.187Z" fill="black"/>
</svg>
