<svg width="137" height="71" viewBox="0 0 137 71" fill="none" xmlns="http://www.w3.org/2000/svg">
<rect x="0.3125" y="10.9565" width="48.7883" height="48.7883" fill="white"/>
<path fill-rule="evenodd" clip-rule="evenodd" d="M23.1455 32.8423C23.3601 32.8423 23.5351 32.6747 23.5351 32.4568V24.4944C23.5351 24.2764 23.3304 24.1055 23.1257 24.1055C22.9211 24.1055 22.7461 24.2731 22.7461 24.4944V32.4568C22.7461 32.6747 22.931 32.8423 23.1455 32.8423Z" fill="black"/>
<path fill-rule="evenodd" clip-rule="evenodd" d="M15.0525 39.2524H14.6992V42.6184H15.0525C15.2373 42.6184 15.4057 42.4508 15.4057 42.2295V39.638C15.4057 39.4301 15.2505 39.2524 15.0525 39.2524Z" fill="black"/>
<path fill-rule="evenodd" clip-rule="evenodd" d="M0.3125 10.9565V60.6016H49.188V10.9565H0.3125ZM27.7363 21.3697H32.1963L33.0381 27.8033L33.87 21.3697H38.3367V35.5779H34.9727V29.1544L34.2002 35.5779H31.9322L31.1003 29.1544V35.5779H27.7363V21.3697ZM19.3312 24.2898C19.3312 22.2447 20.3084 21.2523 22.3321 21.2523H23.9365C25.9503 21.2523 26.9274 22.2447 26.9274 24.2898V32.6511C26.9274 34.7063 25.9503 35.6986 23.9365 35.6986H22.3321C20.3084 35.6986 19.3312 34.7063 19.3312 32.6511V24.2898ZM18.5092 42.1322C18.5092 44.1773 17.7169 45.1797 15.7031 45.1797H14.6665V50.7215H11.2728V36.5133H15.7031C17.7268 36.5133 18.5092 37.5057 18.5092 39.5507V42.1322ZM18.5092 26.5058H15.4093V24.4205C15.4093 24.2328 15.2541 24.0719 15.0758 24.0719C14.8976 24.0719 14.6863 24.2294 14.6863 24.4205V32.2756C14.6863 32.5036 14.8811 32.6344 15.0593 32.6344H18.5092V35.5846H14.3826C12.3688 35.5846 11.3025 34.0659 11.3025 31.7526V25.1983C11.3025 22.885 11.7812 21.2356 14.7061 21.2356H15.7031C17.7664 21.2356 18.5092 22.885 18.5092 25.2184V26.5092V26.5058ZM24.1709 50.7014H19.1463V36.4932H22.54V47.7512H24.1742V50.7014H24.1709ZM30.1132 50.7014H24.8146V36.4932H30.0736V39.3932H27.9211V41.9948H29.9745V44.945H27.9211V47.7545H30.1099V50.7048L30.1132 50.7014ZM35.0222 50.6813L34.395 47.0371L33.6918 50.6813H30.7107L32.5 43.832L30.7701 36.4932H34.1441L34.7416 40.0771L35.4646 36.4932H38.4159L36.6563 43.3459L38.4456 50.6847H35.0222V50.6813Z" fill="black"/>
<path d="M137 10.5V60.5H0V10.5H137ZM1.1096 59.7008H135.89V35.4995V11.2982H1.1096V59.7008Z" fill="black"/>
<path d="M60.3033 38.1557V44H57.5082V27.83H61.62C63.3525 27.83 64.2072 28.6847 64.2072 30.4403V35.5685C64.2072 37.301 63.3525 38.1557 61.62 38.1557H60.3033ZM61.4121 30.7406C61.4121 30.3941 61.2504 30.2324 60.9039 30.2324H60.3033V35.7533H60.9039C61.2504 35.7533 61.4121 35.5916 61.4121 35.2682V30.7406ZM65.0202 27.83H67.8153V41.4821H69.8481V44H65.0202V27.83ZM77.7295 44H74.9344L74.7034 41.6438H72.9709L72.763 44H70.1989L72.0469 27.83H75.8815L77.7295 44ZM73.8256 31.7339L73.1788 39.1952H74.4955L73.8256 31.7339ZM84.5621 27.83L82.2059 38.3867V44H79.3877V38.6639L77.0315 27.83H79.9652L80.8892 33.7898L81.9056 27.83H84.5621ZM89.1442 37.4396H88.2664V35.0834H91.8931V41.5283C91.8931 43.2839 91.0153 44.1386 89.2828 44.1386H87.481C85.7254 44.1386 84.8707 43.2839 84.8707 41.5283V30.3017C84.8707 28.5461 85.7254 27.6914 87.481 27.6914H89.2366C90.9922 27.6914 91.8469 28.5461 91.8469 30.3017V33.9977H89.0749V30.602C89.0749 30.2555 88.9132 30.0938 88.5898 30.0938H88.174C87.8506 30.0938 87.6889 30.2555 87.6889 30.602V41.228C87.6889 41.5745 87.8506 41.7362 88.174 41.7362H88.636C88.9825 41.7362 89.1442 41.5745 89.1442 41.228V37.4396ZM98.4477 36.3539C99.3024 36.608 99.672 37.1393 99.672 38.1557V44H96.8538V38.1788C96.8538 37.8323 96.6921 37.6706 96.3687 37.6706H95.6526V44H92.8575V27.83H97.0386C98.7942 27.83 99.6489 28.6847 99.6489 30.4403V34.2749C99.6489 35.4761 99.21 36.0767 98.4477 36.3539ZM96.8307 30.7868C96.8307 30.4403 96.6921 30.2786 96.3456 30.2786H95.6526V35.2913H96.3456C96.6921 35.2913 96.8307 35.1296 96.8307 34.8062V30.7868ZM107.594 41.5052C107.594 43.2608 106.716 44.1386 104.984 44.1386H103.182C101.426 44.1386 100.571 43.2608 100.571 41.5052V30.3017C100.571 28.5461 101.426 27.6914 103.182 27.6914H104.984C106.716 27.6914 107.594 28.5461 107.594 30.3017V41.5052ZM104.776 30.602C104.776 30.2555 104.614 30.0938 104.291 30.0938H103.875C103.551 30.0938 103.39 30.2555 103.39 30.602V41.2049C103.39 41.5514 103.551 41.7131 103.875 41.7131H104.291C104.614 41.7131 104.776 41.5514 104.776 41.2049V30.602ZM115.442 27.83V41.5052C115.442 43.2608 114.587 44.1155 112.832 44.1155H111.145C109.39 44.1155 108.535 43.2608 108.535 41.5052V27.83H111.33V41.2049C111.33 41.5514 111.492 41.7131 111.838 41.7131H112.139C112.485 41.7131 112.647 41.5514 112.647 41.2049V27.83H115.442ZM123.269 44H120.566L118.718 34.9679L118.811 39.2645L118.857 44H116.431V27.83H119.296L120.982 36.1922L120.89 31.6184L120.866 27.83H123.269V44ZM124.282 44V27.83H128.232C130.241 27.83 131.235 28.8002 131.235 30.833V40.997C131.235 43.0298 130.241 44 128.232 44H124.282ZM127.077 30.2324V41.5976H127.654C128.186 41.5976 128.417 41.3435 128.417 40.8122V31.0178C128.417 30.4865 128.186 30.2324 127.654 30.2324H127.077Z" fill="black"/>
</svg>
