<svg width="18" height="18" viewBox="0 0 18 18" fill="none" xmlns="http://www.w3.org/2000/svg">
<g clip-path="url(#clip0_59_243)">
<path d="M17.145 6.85687H18V11.1431H17.145V6.85687Z" fill="white"/>
<path d="M16.2844 11.1431H17.145V12.8588H16.2844V11.1431Z" fill="white"/>
<path d="M16.2844 5.14124H17.145V6.85686H16.2844V5.14124Z" fill="white"/>
<path d="M15.4293 12.8588H16.2843V14.5688H15.4293V12.8588Z" fill="white"/>
<path d="M15.4293 3.4256H16.2843V5.14122H15.4293V3.4256Z" fill="white"/>
<path d="M14.5687 14.5687H15.4294V15.4294H14.5687V14.5687Z" fill="white"/>
<path d="M14.5687 2.57062H15.4294V3.42562H14.5687V2.57062Z" fill="white"/>
<path d="M12.8588 15.4294H14.5688V16.2844H12.8588V15.4294Z" fill="white"/>
<path d="M12.8588 1.71564H14.5688V2.57064H12.8588V1.71564Z" fill="white"/>
<path d="M11.1431 16.2844H12.8587V17.145H11.1431V16.2844Z" fill="white"/>
<path d="M11.1431 0.85498H12.8587V1.71561H11.1431V0.85498Z" fill="white"/>
<path d="M6.85693 17.145H11.1432V18H6.85693V17.145Z" fill="white"/>
<path d="M10.2882 11.1431H7.71193V11.9981H6.85693V14.5688H7.71193V15.4294H10.2882V14.5688H11.1432V11.9981H10.2882V11.1431Z" fill="white"/>
<path d="M10.2882 2.57062H7.71193V3.42562H6.85693V8.57249H7.71193V10.2881H10.2882V8.57249H11.1432V3.42562H10.2882V2.57062Z" fill="white"/>
<path d="M6.85693 0H11.1432V0.855H6.85693V0Z" fill="white"/>
<path d="M5.14124 16.2844H6.85686V17.145H5.14124V16.2844Z" fill="white"/>
<path d="M5.14124 0.85498H6.85686V1.71561H5.14124V0.85498Z" fill="white"/>
<path d="M3.42566 15.4294H5.14128V16.2844H3.42566V15.4294Z" fill="white"/>
<path d="M3.42566 1.71564H5.14128V2.57064H3.42566V1.71564Z" fill="white"/>
<path d="M2.57068 14.5687H3.42568V15.4294H2.57068V14.5687Z" fill="white"/>
<path d="M2.57068 2.57062H3.42568V3.42562H2.57068V2.57062Z" fill="white"/>
<path d="M1.71558 12.8588H2.57058V14.5688H1.71558V12.8588Z" fill="white"/>
<path d="M1.71558 3.4256H2.57058V5.14122H1.71558V3.4256Z" fill="white"/>
<path d="M0.85498 11.1431H1.71561V12.8588H0.85498V11.1431Z" fill="white"/>
<path d="M0.85498 5.14124H1.71561V6.85686H0.85498V5.14124Z" fill="white"/>
<path d="M0 6.85687H0.855V11.1431H0V6.85687Z" fill="white"/>
</g>
<defs>
<clipPath id="clip0_59_243">
<rect width="18" height="18" fill="white"/>
</clipPath>
</defs>
</svg>
