<svg width="28" height="28" viewBox="0 0 28 28" fill="none" xmlns="http://www.w3.org/2000/svg">
<g clip-path="url(#clip0_59_469)">
<path d="M17.9952 17.3334H15.3352V18.6634H13.9964V17.3334H11.3277V18.6634H9.99767V21.3321H11.3277V22.6621H12.6664V24.0009H13.9964V25.3309H15.3352V24.0009H16.6652V22.6621H17.9952V21.3321H19.3339V18.6634H17.9952V17.3334Z" fill="#00FF85"/>
<path d="M24.6624 9.32751H26.0011V19.9938H24.6624V9.32751Z" fill="#00FF85"/>
<path d="M23.3328 19.9935H24.6628V22.6622H23.3328V19.9935Z" fill="#00FF85"/>
<path d="M23.3328 7.99731H24.6628V9.32731H23.3328V7.99731Z" fill="#00FF85"/>
<path d="M21.9929 22.6628H23.3317V24.0015H21.9929V22.6628Z" fill="#00FF85"/>
<path d="M21.9929 6.66748H23.3317V7.99748H21.9929V6.66748Z" fill="#00FF85"/>
<path d="M20.6638 24.001H21.9938V25.331H20.6638V24.001Z" fill="#00FF85"/>
<path d="M20.6638 5.32861H21.9938V6.66736H20.6638V5.32861Z" fill="#00FF85"/>
<path d="M19.3338 25.3314H20.6638V26.6614H19.3338V25.3314Z" fill="#00FF85"/>
<path d="M19.3338 3.99908H20.6638V5.32908H19.3338V3.99908Z" fill="#00FF85"/>
<path d="M17.9939 2.66003H19.3327V3.99878H17.9939V2.66003Z" fill="#00FF85"/>
<path d="M8.6664 26.661H19.3326V27.9998H8.6664V26.661Z" fill="#00FF85"/>
<path d="M15.3348 1.32953H17.9948V2.65953H15.3348V1.32953Z" fill="#00FF85"/>
<path d="M12.6654 7.99731H13.9954V13.3261H12.6654V7.99731Z" fill="#00FF85"/>
<path d="M11.3272 3.99908H12.666V7.99783H11.3272V3.99908Z" fill="#00FF85"/>
<path d="M9.99767 2.66003H11.3277V3.99878H9.99767V2.66003Z" fill="#00FF85"/>
<path d="M15.3345 1.33V0H7.32821V1.33H8.66696V2.66H9.99696V1.33H15.3345Z" fill="#00FF85"/>
<path d="M8.6664 13.3267H12.6651V14.6654H8.6664V13.3267Z" fill="#00FF85"/>
<path d="M7.32821 25.3314H8.66696V26.6614H7.32821V25.3314Z" fill="#00FF85"/>
<path d="M7.32821 11.9962H8.66696V13.3262H7.32821V11.9962Z" fill="#00FF85"/>
<path d="M4.66913 24.001H7.32913V25.331H4.66913V24.001Z" fill="#00FF85"/>
<path d="M7.32913 9.32751H5.99913V10.6663H4.66913V11.9963H7.32913V9.32751Z" fill="#00FF85"/>
<path d="M3.32922 22.6628H4.66797V24.0015H3.32922V22.6628Z" fill="#00FF85"/>
<path d="M3.32922 11.9962H4.66797V15.995H3.32922V11.9962Z" fill="#00FF85"/>
<path d="M1.99968 15.9953H3.32968V22.6628H1.99968V15.9953Z" fill="#00FF85"/>
</g>
<defs>
<clipPath id="clip0_59_469">
<rect width="28" height="28" fill="white"/>
</clipPath>
</defs>
</svg>
