<svg width="31" height="31" viewBox="0 0 31 31" fill="none" xmlns="http://www.w3.org/2000/svg">
<g clip-path="url(#clip0_59_424)">
<path d="M28.7803 8.11768H30.2625V9.59018H28.7803V8.11768Z" fill="#00FF85"/>
<path d="M27.3082 9.58972H28.7807V11.0719H27.3082V9.58972Z" fill="#00FF85"/>
<path d="M27.3082 6.64471H28.7807V8.11721H27.3082V6.64471Z" fill="#00FF85"/>
<path d="M25.8362 8.11768H27.3087V9.59018H25.8362V8.11768Z" fill="#00FF85"/>
<path d="M25.8354 27.3089V25.8267H27.3079V24.3542H25.8354V22.8817H24.3532V24.3542H22.8807V25.8267H24.3532V27.3089H25.8354Z" fill="#00FF85"/>
<path d="M24.3547 12.5452H25.8369V15.4999H24.3547V12.5452Z" fill="#00FF85"/>
<path d="M22.8807 15.4997H24.3532V16.9722H22.8807V15.4997Z" fill="#00FF85"/>
<path d="M22.8807 3.69019H24.3532V5.16269H22.8807V3.69019Z" fill="#00FF85"/>
<path d="M21.3992 16.9717H22.8814V18.4539H21.3992V16.9717Z" fill="#00FF85"/>
<path d="M21.3992 5.16321H22.8814V6.6454H21.3992V5.16321Z" fill="#00FF85"/>
<path d="M19.9272 18.4542H21.3997V19.9267H19.9272V18.4542Z" fill="#00FF85"/>
<path d="M19.9272 6.64471H21.3997V8.11721H19.9272V6.64471Z" fill="#00FF85"/>
<path d="M18.4532 19.9263H19.9257V21.3988H18.4532V19.9263Z" fill="#00FF85"/>
<path d="M18.4532 8.11768H19.9257V9.59018H18.4532V8.11768Z" fill="#00FF85"/>
<path d="M16.9717 28.7812H18.4539V30.2634H16.9717V28.7812Z" fill="#00FF85"/>
<path d="M16.9717 21.3992H18.4539V22.8814H16.9717V21.3992Z" fill="#00FF85"/>
<path d="M16.9722 9.58972V11.0719H15.4997V12.5444H24.3541V11.0719H18.4544V9.58972H16.9722Z" fill="#00FF85"/>
<path d="M15.4997 22.8817H16.9722V24.3542H15.4997V22.8817Z" fill="#00FF85"/>
<path d="M24.3545 2.20822V3.69041H25.8367V0.735718H14.0276V2.20822H24.3545Z" fill="#00FF85"/>
<path d="M14.0276 24.3538H15.5001V25.8263H14.0276V24.3538Z" fill="#00FF85"/>
<path d="M12.5443 25.8267H14.0264V27.3089H12.5443V25.8267Z" fill="#00FF85"/>
<path d="M12.5443 2.20776H14.0264V3.68995H12.5443V2.20776Z" fill="#00FF85"/>
<path d="M11.0722 27.3082H12.5447V28.7807H11.0722V27.3082Z" fill="#00FF85"/>
<path d="M12.5455 15.4997H3.69116V16.9722H11.073V19.9269H12.5455V15.4997Z" fill="#00FF85"/>
<path d="M11.0722 3.69019H12.5447V5.16269H11.0722V3.69019Z" fill="#00FF85"/>
<path d="M9.5907 28.7812H11.0729V30.2634H9.5907V28.7812Z" fill="#00FF85"/>
<path d="M9.5907 19.9263H11.0729V24.3535H9.5907V19.9263Z" fill="#00FF85"/>
<path d="M9.5907 5.16321H11.0729V6.6454H9.5907V5.16321Z" fill="#00FF85"/>
<path d="M8.11676 24.3538H9.58926V28.7809H8.11676V24.3538Z" fill="#00FF85"/>
<path d="M8.11676 6.64471H9.58926V8.11721H8.11676V6.64471Z" fill="#00FF85"/>
<path d="M6.64471 8.11768H8.11721V9.59018H6.64471V8.11768Z" fill="#00FF85"/>
<path d="M5.16321 9.58972H6.6454V11.0719H5.16321V9.58972Z" fill="#00FF85"/>
<path d="M3.69116 21.3992H5.16366V22.8814H3.69116V21.3992Z" fill="#00FF85"/>
<path d="M3.69116 11.0722H5.16366V12.5447H3.69116V11.0722Z" fill="#00FF85"/>
<path d="M3.68972 0.735718V2.20822H2.21722V3.69041H3.68972V5.1629H5.16222V3.69041H6.64441V2.20822H5.16222V0.735718H3.68972Z" fill="#00FF85"/>
<path d="M2.21722 22.8817H3.68972V24.3542H2.21722V22.8817Z" fill="#00FF85"/>
<path d="M2.21722 19.9263H3.68972V21.3988H2.21722V19.9263Z" fill="#00FF85"/>
<path d="M2.21722 12.5452H3.68972V15.4999H2.21722V12.5452Z" fill="#00FF85"/>
<path d="M0.735718 21.3992H2.21791V22.8814H0.735718V21.3992Z" fill="#00FF85"/>
</g>
<defs>
<clipPath id="clip0_59_424">
<rect width="31" height="31" fill="white"/>
</clipPath>
</defs>
</svg>
