<svg width="27" height="27" viewBox="0 0 27 27" fill="none" xmlns="http://www.w3.org/2000/svg">
<g clip-path="url(#clip0_79_7057)">
<path d="M17.3518 7.71188H18.6428V9.00281H22.4987V7.71188H23.7812V6.42938H22.4987V3.85594H21.2078V2.57344H22.4987V3.85594H23.7812V6.42938H25.0721V2.57344H23.7812V1.2825H22.4987V0H18.6428V1.2825H17.3518V2.57344H16.0693V6.42938H17.3518V7.71188Z" fill="white"/>
<path d="M16.0693 24.4267H17.3518V25.7176H18.6428V27.0001H22.4987V25.7176H23.7812V24.4267H22.4987V21.8533H21.2078V20.5708H22.4987V21.8533H23.7812V24.4267H25.0721V20.5708H23.7812V19.2883H22.4987V17.9973H18.6428V19.2883H17.3518V20.5708H16.0693V24.4267Z" fill="white"/>
<path d="M14.7872 19.2883H16.0697V20.5708H14.7872V19.2883Z" fill="white"/>
<path d="M14.7872 6.42944H16.0697V7.71194H14.7872V6.42944Z" fill="white"/>
<path d="M13.4968 17.9973H14.7878V19.2883H13.4968V17.9973Z" fill="white"/>
<path d="M13.4968 7.71167H14.7878V9.00261H13.4968V7.71167Z" fill="white"/>
<path d="M12.2131 16.7144H13.4956V17.9969H12.2131V16.7144Z" fill="white"/>
<path d="M12.2131 9.00269H13.4956V10.2852H12.2131V9.00269Z" fill="white"/>
<path d="M10.9227 15.4324H12.2137V16.7149H10.9227V15.4324Z" fill="white"/>
<path d="M10.9227 10.2856H12.2137V11.5681H10.9227V10.2856Z" fill="white"/>
<path d="M4.50178 9.00269V10.2852H3.21084V11.5677H1.92834V15.4321H3.21084V16.7146H4.50178V17.9971H8.35772V16.7146H9.64022V15.4321H10.9227V11.5677H9.64022V10.2852H8.35772V9.00269H4.50178Z" fill="white"/>
</g>
<defs>
<clipPath id="clip0_79_7057">
<rect width="27" height="27" fill="white"/>
</clipPath>
</defs>
</svg>
