<svg width="28" height="28" viewBox="0 0 28 28" fill="none" xmlns="http://www.w3.org/2000/svg">
<path d="M17.9952 17.3334H15.3352V18.6634H13.9964V17.3334H11.3277V18.6634H9.99768V21.3322H11.3277V22.6622H12.6664V24.0009H13.9964V25.3309H15.3352V24.0009H16.6652V22.6622H17.9952V21.3322H19.3339V18.6634H17.9952V17.3334Z" fill="#FFB627"/>
<path d="M24.6624 9.32753H26.0011V19.9938H24.6624V9.32753Z" fill="#FFB627"/>
<path d="M23.3329 19.9935H24.6629V22.6622H23.3329V19.9935Z" fill="#FFB627"/>
<path d="M23.3329 7.99734H24.6629V9.32734H23.3329V7.99734Z" fill="#FFB627"/>
<path d="M21.9929 22.6628H23.3317V24.0016H21.9929V22.6628Z" fill="#FFB627"/>
<path d="M21.9929 6.66747H23.3317V7.99747H21.9929V6.66747Z" fill="#FFB627"/>
<path d="M20.6638 24.001H21.9938V25.331H20.6638V24.001Z" fill="#FFB627"/>
<path d="M20.6638 5.32864H21.9938V6.66739H20.6638V5.32864Z" fill="#FFB627"/>
<path d="M19.3339 25.3314H20.6639V26.6614H19.3339V25.3314Z" fill="#FFB627"/>
<path d="M19.3339 3.9991H20.6639V5.3291H19.3339V3.9991Z" fill="#FFB627"/>
<path d="M17.994 2.66006H19.3328V3.99881H17.994V2.66006Z" fill="#FFB627"/>
<path d="M8.66638 26.661H19.3326V27.9998H8.66638V26.661Z" fill="#FFB627"/>
<path d="M15.3348 1.32954H17.9948V2.65954H15.3348V1.32954Z" fill="#FFB627"/>
<path d="M12.6654 7.99734H13.9954V13.3261H12.6654V7.99734Z" fill="#FFB627"/>
<path d="M11.3273 3.9991H12.666V7.99785H11.3273V3.9991Z" fill="#FFB627"/>
<path d="M9.99768 2.66006H11.3277V3.99881H9.99768V2.66006Z" fill="#FFB627"/>
<path d="M15.3345 1.33V0H7.32825V1.33H8.667V2.66H9.997V1.33H15.3345Z" fill="#FFB627"/>
<path d="M8.66638 13.3266H12.6651V14.6654H8.66638V13.3266Z" fill="#FFB627"/>
<path d="M7.32825 25.3314H8.667V26.6614H7.32825V25.3314Z" fill="#FFB627"/>
<path d="M7.32825 11.9962H8.667V13.3262H7.32825V11.9962Z" fill="#FFB627"/>
<path d="M4.66919 24.001H7.32919V25.331H4.66919V24.001Z" fill="#FFB627"/>
<path d="M7.32919 9.32753H5.99919V10.6663H4.66919V11.9963H7.32919V9.32753Z" fill="#FFB627"/>
<path d="M3.32922 22.6628H4.66797V24.0016H3.32922V22.6628Z" fill="#FFB627"/>
<path d="M3.32922 11.9962H4.66797V15.995H3.32922V11.9962Z" fill="#FFB627"/>
<path d="M1.99976 15.9953H3.32976V22.6628H1.99976V15.9953Z" fill="#FFB627"/>
</svg>
