<svg width="32" height="32" viewBox="0 0 32 32" fill="none" xmlns="http://www.w3.org/2000/svg">
<g clip-path="url(#clip0_59_393)">
<path d="M30.47 12.19H32V19.81H30.47V12.19Z" fill="#00FF85"/>
<path d="M28.95 19.81H30.47V22.86H28.95V19.81Z" fill="#00FF85"/>
<path d="M28.95 9.14001H30.47V12.19H28.95V9.14001Z" fill="#00FF85"/>
<path d="M27.43 22.86H28.95V25.9H27.43V22.86Z" fill="#00FF85"/>
<path d="M27.43 6.09998H28.95V9.13998H27.43V6.09998Z" fill="#00FF85"/>
<path d="M25.9 25.9H27.43V27.43H25.9V25.9Z" fill="#00FF85"/>
<path d="M25.9 4.57001H27.43V6.10001H25.9V4.57001Z" fill="#00FF85"/>
<path d="M22.85 27.43H25.9V28.95H22.85V27.43Z" fill="#00FF85"/>
<path d="M22.85 3.04999H25.9V4.56999H22.85V3.04999Z" fill="#00FF85"/>
<path d="M13.71 18.29H15.24V19.81H16.76V18.29H18.28V16.76H24.38V15.24H18.28V13.71H16.76V4.57001H15.24V13.71H13.71V15.24H12.19V16.76H13.71V18.29Z" fill="#00FF85"/>
<path d="M19.81 28.95H22.85V30.48H19.81V28.95Z" fill="#00FF85"/>
<path d="M19.81 1.52002H22.85V3.05002H19.81V1.52002Z" fill="#00FF85"/>
<path d="M12.19 30.48H19.81V32H12.19V30.48Z" fill="#00FF85"/>
<path d="M12.19 0H19.81V1.52H12.19V0Z" fill="#00FF85"/>
<path d="M9.14 28.95H12.19V30.48H9.14V28.95Z" fill="#00FF85"/>
<path d="M9.14 1.52002H12.19V3.05002H9.14V1.52002Z" fill="#00FF85"/>
<path d="M6.09 27.43H9.14V28.95H6.09V27.43Z" fill="#00FF85"/>
<path d="M6.09 3.04999H9.14V4.56999H6.09V3.04999Z" fill="#00FF85"/>
<path d="M4.57 25.9H6.09V27.43H4.57V25.9Z" fill="#00FF85"/>
<path d="M4.57 4.57001H6.09V6.10001H4.57V4.57001Z" fill="#00FF85"/>
<path d="M3.05 22.86H4.57V25.9H3.05V22.86Z" fill="#00FF85"/>
<path d="M3.05 6.09998H4.57V9.13998H3.05V6.09998Z" fill="#00FF85"/>
<path d="M1.52 19.81H3.05V22.86H1.52V19.81Z" fill="#00FF85"/>
<path d="M1.52 9.14001H3.05V12.19H1.52V9.14001Z" fill="#00FF85"/>
<path d="M0 12.19H1.52V19.81H0V12.19Z" fill="#00FF85"/>
</g>
<defs>
<clipPath id="clip0_59_393">
<rect width="32" height="32" fill="white"/>
</clipPath>
</defs>
</svg>
