<svg width="32" height="32" viewBox="0 0 32 32" fill="none" xmlns="http://www.w3.org/2000/svg">
<g clip-path="url(#clip0_59_366)">
<path d="M25.135 21.33H26.665V28.95H25.135V21.33Z" fill="#00FF85"/>
<path d="M23.615 28.95H25.135V30.48H23.615V28.95Z" fill="#00FF85"/>
<path d="M23.615 19.81H25.135V21.33H23.615V19.81Z" fill="#00FF85"/>
<path d="M22.095 30.48H23.615V32H22.095V30.48Z" fill="#00FF85"/>
<path d="M22.095 18.29H23.615V19.81H22.095V18.29Z" fill="#00FF85"/>
<path d="M22.095 18.29V16.76H15.995V10.67H14.475V18.29H22.095Z" fill="#00FF85"/>
<path d="M20.565 3.04999H22.095V4.56999H20.565V3.04999Z" fill="#00FF85"/>
<path d="M19.045 19.81H20.565V24.38H19.045V19.81Z" fill="#00FF85"/>
<path d="M19.045 4.57001H20.565V6.10001H19.045V4.57001Z" fill="#00FF85"/>
<path d="M17.525 6.09998H19.045V7.61998H17.525V6.09998Z" fill="#00FF85"/>
<path d="M14.475 19.81H15.995V24.38H14.475V19.81Z" fill="#00FF85"/>
<path d="M11.425 9.14001H14.475V10.67H11.425V9.14001Z" fill="#00FF85"/>
<path d="M12.945 0H14.475V4.57H12.945V0Z" fill="#00FF85"/>
<path d="M9.905 28.95H11.425V32H9.905V28.95Z" fill="#00FF85"/>
<path d="M9.905 22.86H11.425V10.67H9.905V18.29H6.855V19.81H9.905V22.86Z" fill="#00FF85"/>
<path d="M8.375 27.43H9.905V28.95H8.375V27.43Z" fill="#00FF85"/>
<path d="M8.375 6.09998H9.905V7.61998H8.375V6.09998Z" fill="#00FF85"/>
<path d="M6.855 25.91H8.375V27.43H6.855V25.91Z" fill="#00FF85"/>
<path d="M6.855 4.57001H8.375V6.10001H6.855V4.57001Z" fill="#00FF85"/>
<path d="M5.335 19.81H6.855V25.91H5.335V19.81Z" fill="#00FF85"/>
<path d="M5.335 3.04999H6.855V4.56999H5.335V3.04999Z" fill="#00FF85"/>
</g>
<defs>
<clipPath id="clip0_59_366">
<rect width="32" height="32" fill="white"/>
</clipPath>
</defs>
</svg>
